<svg width="24" height="24" viewBox="0 0 24 24" fill="none" xmlns="http://www.w3.org/2000/svg">
  <circle cx="12" cy="12" r="12" fill="#0ca7f1"/>
  <path d="M12 6C11.3 6 10.7 6.1 10.2 6.4C9.5 6.7 8.9 7.2 8.6 7.8C8 8.7 8 9.8 8.4 10.7C8.5 11 8.3 11.3 8 11.4C7.7 11.5 7.4 11.3 7.3 11C6.8 9.8 6.8 8.4 7.5 7.2C7.9 6.4 8.6 5.7 9.5 5.3C10.3 4.9 11.1 4.8 12 4.8C12.9 4.8 13.7 4.9 14.5 5.3C15.4 5.7 16.1 6.4 16.5 7.2C17.2 8.4 17.2 9.8 16.7 11C16.6 11.3 16.3 11.5 16 11.4C15.7 11.3 15.5 11 15.6 10.7C16 9.8 16 8.7 15.4 7.8C15.1 7.2 14.5 6.7 13.8 6.4C13.3 6.1 12.7 6 12 6Z" fill="white"/>
  <path d="M12 19.2C10.7 19.2 9.5 18.8 8.5 18C7.5 17.3 6.7 16.2 6.5 15C6.3 13.7 6.6 12.4 7.4 11.4C7.6 11.1 8 11.1 8.3 11.3C8.6 11.5 8.6 11.9 8.4 12.2C7.8 13 7.6 14 7.7 15C7.9 15.9 8.5 16.7 9.3 17.2C10.1 17.8 11.1 18.1 12 18C12.9 18.1 13.9 17.8 14.7 17.2C15.5 16.7 16.1 15.9 16.3 15C16.4 14 16.2 13 15.6 12.2C15.4 11.9 15.4 11.5 15.7 11.3C16 11.1 16.4 11.1 16.6 11.4C17.4 12.4 17.7 13.7 17.5 15C17.3 16.2 16.5 17.3 15.5 18C14.5 18.8 13.3 19.2 12 19.2Z" fill="white"/>
</svg>