<?xml version="1.0" standalone="no"?>
<!DOCTYPE svg PUBLIC "-//W3C//DTD SVG 20010904//EN"
 "http://www.w3.org/TR/2001/REC-SVG-20010904/DTD/svg10.dtd">
<svg version="1.0" xmlns="http://www.w3.org/2000/svg"
 width="1024.000000pt" height="1024.000000pt" viewBox="0 0 1024.000000 1024.000000"
 preserveAspectRatio="xMidYMid meet">

<g transform="translate(0.000000,1024.000000) scale(0.100000,-0.100000)"
fill="#000000" stroke="none">
<path d="M6405 9348 c-155 -153 -305 -219 -680 -298 -104 -22 -233 -54 -285
-71 -356 -117 -567 -337 -653 -679 -17 -70 -21 -116 -21 -260 0 -117 4 -193
13 -230 14 -54 14 -55 24 -25 85 266 270 498 546 685 65 43 294 161 341 175
14 4 66 24 115 45 110 45 144 40 49 -7 -97 -49 -326 -185 -320 -190 2 -2 17 2
33 11 26 13 30 13 30 0 0 -16 0 -16 -52 -18 -92 -4 -387 -249 -525 -436 -68
-91 -144 -239 -159 -307 -8 -39 -7 -41 10 -30 10 6 15 14 10 17 -4 3 -4 20 1
39 7 27 12 31 19 20 7 -10 8 -6 4 12 -5 18 -2 26 8 26 18 0 17 -58 -2 -81 -8
-9 18 -2 62 19 103 48 219 72 427 89 265 23 429 78 594 200 82 60 216 190 216
209 0 6 -13 -1 -28 -16 -20 -19 -29 -23 -29 -13 0 8 3 13 7 11 4 -3 15 4 25
15 10 11 21 17 26 14 10 -6 100 127 144 215 43 84 88 219 112 331 14 68 18
129 17 300 0 118 -4 231 -10 251 l-9 36 -60 -59z m25 -2 c0 -2 -8 -10 -17 -17
-16 -13 -17 -12 -4 4 13 16 21 21 21 13z m40 -47 c0 -10 -4 -19 -9 -19 -5 0
-8 11 -8 25 0 13 3 22 8 19 5 -3 9 -14 9 -25z m-80 -9 c0 -5 -2 -10 -4 -10 -3
0 -8 5 -11 10 -3 6 -1 10 4 10 6 0 11 -4 11 -10z m-30 -30 c0 -5 -2 -10 -4
-10 -3 0 -8 5 -11 10 -3 6 -1 10 4 10 6 0 11 -4 11 -10z m-44 -25 c-1 -8 -6
-18 -11 -22 -4 -4 -5 -2 0 6 5 9 3 12 -6 9 -8 -3 -13 -10 -12 -15 1 -6 -10
-10 -24 -10 -25 0 -24 1 13 23 46 28 43 28 40 9z m154 -52 c0 -36 -3 -64 -6
-60 -10 9 -12 127 -2 127 4 0 8 -30 8 -67z m-26 32 c4 -10 -1 -15 -15 -15 -17
0 -18 2 -7 15 16 18 15 18 22 0z m-228 -40 c-1 -8 -6 -18 -11 -22 -4 -4 -5 -2
-1 5 4 7 2 12 -6 12 -9 0 -9 3 2 10 19 12 19 13 16 -5z m-39 -12 c-4 -3 -2
-12 5 -20 6 -7 8 -16 4 -20 -3 -3 -6 -1 -6 6 0 7 -5 9 -12 5 -7 -5 -8 -3 -3 6
6 9 2 10 -16 5 -28 -9 -51 -30 -42 -39 4 -3 1 -6 -5 -6 -7 0 -12 5 -12 11 0 5
-4 7 -10 4 -5 -3 -10 -3 -10 0 0 3 24 17 53 30 57 26 64 28 54 18z m254 -56
c-10 -9 -11 -8 -5 6 3 10 9 15 12 12 3 -3 0 -11 -7 -18z m-414 -11 c-10 -8
-17 -21 -15 -29 2 -9 0 -16 -4 -16 -23 -2 -27 1 -22 17 4 10 3 13 -3 6 -4 -6
-25 -17 -45 -23 -21 -7 -38 -17 -38 -22 0 -6 -7 -3 -16 6 -11 11 -20 13 -28 5
-7 -5 -16 -7 -19 -3 -11 10 -8 20 6 21 6 0 53 12 102 25 109 30 104 29 82 13z
m41 -2 c-1 -5 -9 -9 -16 -10 -10 -2 -11 1 -1 12 12 14 24 13 17 -2z m407 6 c3
-5 1 -10 -4 -10 -6 0 -11 5 -11 10 0 6 2 10 4 10 3 0 8 -4 11 -10z m10 -49 c5
-12 3 -12 -12 0 -15 13 -16 12 -11 -9 4 -12 2 -20 -2 -17 -5 3 -11 -1 -13 -7
-3 -7 -6 -4 -6 8 -1 11 -7 26 -13 34 -11 12 -10 12 3 2 20 -15 33 -3 16 16
-11 13 -9 14 10 1 13 -7 25 -20 28 -28z m-311 21 c-6 -4 -13 -14 -16 -22 -3
-11 -6 -9 -10 6 -4 15 0 20 16 22 11 0 16 -2 10 -6z m150 -18 c9 -24 7 -27 -9
-10 -17 17 -19 26 -6 26 5 0 12 -7 15 -16z m-510 -19 c-4 -11 1 -15 17 -15 19
0 21 -2 9 -10 -9 -5 -19 -5 -26 0 -6 6 -15 6 -20 2 -5 -4 -6 -3 -2 2 4 5 3 15
-3 23 -9 10 -7 13 9 13 15 0 20 -5 16 -15z m159 -20 c-7 -21 -13 -19 -13 6 0
11 4 18 10 14 5 -3 7 -12 3 -20z m-240 -3 c-4 -8 -8 -10 -12 -4 -3 5 -15 12
-26 15 -12 3 -7 5 11 4 23 -1 30 -5 27 -15z m584 4 c2 -2 0 -7 -6 -11 -6 -3
-11 -1 -11 5 0 6 -4 9 -9 5 -5 -3 -12 -1 -16 4 -5 9 33 7 42 -3z m113 5 c0 -6
-4 -13 -10 -16 -5 -3 -10 1 -10 9 0 9 5 16 10 16 6 0 10 -4 10 -9z m-756 -7
c9 -3 16 -16 15 -28 0 -11 -3 -15 -6 -8 -2 6 -9 12 -14 12 -6 0 -7 -5 -3 -11
3 -6 -5 -3 -20 6 -22 14 -26 15 -26 3 0 -8 -10 -19 -22 -25 l-21 -9 22 -21
c14 -13 18 -23 12 -27 -6 -4 -17 7 -26 24 -8 16 -22 30 -30 30 -8 0 -15 5 -15
11 0 6 -5 7 -12 2 -7 -4 -20 -8 -28 -10 -56 -8 -80 -15 -75 -23 3 -5 12 -7 19
-4 8 3 17 1 21 -5 4 -7 0 -8 -11 -4 -14 5 -16 3 -11 -11 5 -12 3 -16 -5 -13
-7 2 -12 9 -11 15 1 5 -12 8 -30 7 -43 -4 -44 -4 -29 -14 11 -7 11 -9 -2 -14
-10 -4 -16 -1 -16 9 0 8 -4 13 -10 9 -5 -3 -6 -13 -3 -22 5 -13 1 -15 -25 -11
-22 3 -32 0 -32 -9 0 -7 -5 -12 -11 -10 -6 1 -14 -4 -17 -12 -2 -8 0 -11 6 -8
5 4 15 0 22 -8 11 -13 8 -15 -13 -13 -14 1 -24 5 -21 9 6 10 -26 20 -38 13 -7
-4 -4 -10 6 -16 26 -14 10 -26 -35 -26 -46 -1 -66 -13 -53 -34 5 -7 10 -22 11
-33 3 -16 1 -17 -7 -5 -9 13 -10 13 -11 0 0 -11 -3 -9 -8 4 -7 17 -8 17 -23 2
-9 -9 -23 -16 -31 -16 -15 0 -18 -30 -4 -41 11 -8 -2 -36 -17 -36 -8 0 -12 6
-9 14 4 9 0 11 -13 6 -13 -5 -15 -3 -9 7 5 9 4 11 -4 6 -9 -6 -9 -11 -1 -21 8
-10 5 -14 -14 -17 l-25 -5 19 26 c21 29 117 123 106 104 -4 -7 -2 -13 3 -13 6
0 11 7 11 14 0 21 66 69 81 60 7 -4 9 -3 5 4 -6 11 136 95 161 95 7 0 13 3 13
7 0 8 106 43 210 69 90 23 85 22 104 15z m86 -4 c-12 -8 -12 -10 5 -11 15 0
16 -2 5 -6 -8 -3 -18 -12 -22 -19 -11 -17 -48 -6 -48 15 0 14 2 14 10 1 5 -8
10 -10 10 -5 0 6 5 3 10 -5 7 -10 10 -11 11 -2 1 6 3 17 4 22 1 6 3 12 4 15 0
3 7 5 14 5 8 0 7 -4 -3 -10z m244 1 c3 -5 -1 -11 -9 -14 -9 -4 -12 -1 -8 9 6
16 10 17 17 5z m111 -10 c3 -5 2 -12 -3 -15 -5 -3 -9 1 -9 9 0 17 3 19 12 6z
m155 -27 c0 -18 -28 -25 -34 -9 -3 10 0 12 11 8 12 -5 14 -1 8 18 -5 18 -4 21
4 9 6 -8 11 -20 11 -26z m207 -31 c-6 -75 -10 -96 -33 -198 -23 -98 -33 -111
-33 -45 -1 54 -1 78 2 112 1 10 8 15 20 12 11 -2 17 2 14 9 -2 7 -9 12 -14 12
-6 0 -15 3 -19 8 -7 7 9 11 34 8 6 -1 12 5 12 14 0 9 -4 14 -9 10 -5 -3 -13 0
-17 6 -4 8 -3 9 4 5 13 -8 32 24 31 51 0 12 -4 9 -11 -9 -10 -29 -22 -35 -33
-18 -4 6 -11 7 -17 4 -7 -4 -8 -2 -4 5 6 9 11 9 24 -1 13 -11 14 -11 8 0 -5 8
0 20 13 31 12 10 21 26 21 35 0 9 3 16 6 16 4 0 4 -30 1 -67z m-609 32 c-3 -3
-9 2 -12 12 -6 14 -5 15 5 6 7 -7 10 -15 7 -18z m550 1 c14 5 14 4 3 -4 -10
-7 -21 -7 -33 -1 -10 6 -24 7 -30 3 -7 -5 -8 -3 -4 5 5 7 14 10 22 7 8 -3 15
0 15 7 1 7 3 4 6 -5 3 -11 11 -15 21 -12z m-366 -27 c-4 -24 -2 -30 8 -24 9 6
11 4 5 -4 -14 -23 -39 12 -26 37 6 10 7 23 3 27 -4 5 -2 5 4 2 6 -3 9 -20 6
-38z m263 21 c-3 -4 0 -11 5 -13 6 -3 5 -4 -2 -3 -7 1 -15 11 -16 21 -3 11 0
15 7 10 6 -3 9 -10 6 -15z m-470 0 c3 -5 1 -10 -4 -10 -6 0 -11 5 -11 10 0 6
2 10 4 10 3 0 8 -4 11 -10z m448 -27 c3 -5 -6 -9 -19 -9 -13 -1 -21 2 -18 7 6
11 31 12 37 2z m-635 -28 c-3 -3 -9 2 -12 12 -6 14 -5 15 5 6 7 -7 10 -15 7
-18z m149 19 c-3 -3 -12 -4 -19 -1 -8 3 -5 6 6 6 11 1 17 -2 13 -5z m187 -12
c3 -5 -5 -8 -17 -8 -12 1 -22 -4 -22 -11 0 -6 -3 -14 -7 -18 -9 -9 -5 16 5 33
9 14 33 16 41 4z m-224 -12 c0 -5 -2 -10 -4 -10 -3 0 -8 5 -11 10 -3 6 -1 10
4 10 6 0 11 -4 11 -10z m-251 -14 c9 -11 9 -16 -1 -22 -7 -4 -10 -4 -6 1 4 4
3 14 -3 22 -6 7 -9 13 -6 13 2 0 10 -6 16 -14z m453 -18 c-8 -8 -9 -4 -5 13 4
13 8 18 11 10 2 -7 -1 -18 -6 -23z m193 24 c-5 -4 -10 -18 -10 -31 0 -15 -7
-25 -17 -27 -16 -2 -16 0 -1 22 8 13 12 24 9 24 -4 0 -4 5 -1 10 3 6 12 10 18
10 8 0 8 -3 2 -8z m166 -15 c-13 -13 -26 -3 -16 12 3 6 11 8 17 5 6 -4 6 -10
-1 -17z m-241 7 c0 -8 -19 -13 -24 -6 -3 5 1 9 9 9 8 0 15 -2 15 -3z m97 -14
c1 -11 -2 -20 -7 -20 -6 0 -7 17 -1 38 3 8 7 -1 8 -18z m-795 -22 c-9 -9 -17
-8 -34 1 -22 11 -22 11 5 6 17 -3 27 -1 27 6 0 7 3 9 7 6 4 -4 1 -13 -5 -19z
m331 -3 c-3 -9 -8 -14 -10 -11 -3 3 -2 9 2 15 9 16 15 13 8 -4z m323 -3 c1 -7
0 -8 -3 -2 -2 5 -9 10 -14 10 -6 0 -8 -4 -5 -8 2 -4 0 -14 -6 -22 -8 -12 -9
-12 -4 3 3 10 0 17 -7 17 -8 0 -6 4 3 10 18 12 33 8 36 -8z m254 12 c0 -8 -19
-13 -24 -6 -3 5 1 9 9 9 8 0 15 -2 15 -3z m-774 -11 c-8 -9 -46 -11 -51 -3 -3
5 8 8 25 8 17 -1 29 -3 26 -5z m58 -1 c3 -5 -1 -9 -9 -9 -8 0 -12 4 -9 9 3 4
7 8 9 8 2 0 6 -4 9 -8z m406 -17 c0 -8 -4 -15 -10 -15 -5 0 -7 7 -4 15 4 8 8
15 10 15 2 0 4 -7 4 -15z m401 -8 c-10 -9 -11 -8 -5 6 3 10 9 15 12 12 3 -3 0
-11 -7 -18z m-166 -8 c-4 -5 4 -13 17 -18 16 -7 18 -10 6 -10 -17 -1 -31 14
-34 37 -1 6 2 10 7 6 5 -3 7 -10 4 -15z m32 6 c0 -8 -4 -12 -9 -9 -5 3 -6 10
-3 15 9 13 12 11 12 -6z m88 5 c3 -5 1 -10 -4 -10 -6 0 -11 5 -11 10 0 6 2 10
4 10 3 0 8 -4 11 -10z m-639 -12 c3 -4 -1 -5 -10 -4 -8 1 -18 5 -22 8 -3 4 1
5 10 4 8 -1 18 -5 22 -8z m-76 -8 c0 -5 -5 -10 -11 -10 -5 0 -7 5 -4 10 3 6 8
10 11 10 2 0 4 -4 4 -10z m520 -5 c0 -8 -2 -15 -4 -15 -2 0 -6 7 -10 15 -3 8
-1 15 4 15 6 0 10 -7 10 -15z m-482 -20 c-3 -3 -9 2 -12 12 -6 14 -5 15 5 6 7
-7 10 -15 7 -18z m439 10 c0 -8 -4 -12 -9 -9 -5 3 -6 10 -3 15 9 13 12 11 12
-6z m287 -30 c-5 -11 -11 -12 -25 -4 -25 13 -24 18 3 11 16 -4 19 -2 13 8 -5
8 -4 11 3 6 6 -4 9 -13 6 -21z m-627 0 c0 -8 -4 -12 -9 -9 -4 3 -8 9 -8 15 0
5 4 9 8 9 5 0 9 -7 9 -15z m268 -21 c-8 -16 -15 -23 -15 -16 0 13 22 53 27 48
2 -2 -3 -16 -12 -32z m122 5 c2 -24 0 -23 -16 8 -9 18 -9 22 2 18 7 -3 13 -15
14 -26z m-557 0 c0 -6 -4 -7 -10 -4 -5 3 -10 11 -10 16 0 6 5 7 10 4 6 -3 10
-11 10 -16z m-160 -9 c0 -5 -2 -10 -4 -10 -3 0 -8 5 -11 10 -3 6 -1 10 4 10 6
0 11 -4 11 -10z m820 -6 c0 -8 -19 -13 -24 -6 -3 5 1 9 9 9 8 0 15 -2 15 -3z
m-607 -19 c-3 -9 -8 -14 -10 -11 -3 3 -2 9 2 15 9 16 15 13 8 -4z m137 -10 c0
-8 -4 -15 -8 -15 -5 0 -9 7 -9 15 0 8 4 15 9 15 4 0 8 -7 8 -15z m50 11 c0 -2
-9 -6 -20 -9 -11 -3 -20 -1 -20 4 0 5 9 9 20 9 11 0 20 -2 20 -4z m453 -11
c-3 -9 -8 -14 -10 -11 -3 3 -2 9 2 15 9 16 15 13 8 -4z m-965 -20 c-3 -3 -9 2
-12 12 -6 14 -5 15 5 6 7 -7 10 -15 7 -18z m742 5 c0 -5 -7 -7 -15 -4 -8 4
-12 10 -9 15 6 11 24 2 24 -11z m-310 0 c0 -5 -4 -10 -10 -10 -5 0 -10 5 -10
10 0 6 5 10 10 10 6 0 10 -4 10 -10z m370 0 c0 -5 -5 -10 -11 -10 -5 0 -7 5
-4 10 3 6 8 10 11 10 2 0 4 -4 4 -10z m-187 -19 c3 -14 1 -18 -9 -14 -15 6
-18 16 -7 26 9 10 10 9 16 -12z m-228 -1 c3 -5 3 -10 -2 -11 -4 0 -16 -2 -25
-4 -20 -4 -24 11 -5 18 19 8 25 8 32 -3z m636 -13 c-10 -9 -11 -8 -5 6 3 10 9
15 12 12 3 -3 0 -11 -7 -18z m-691 -7 c0 -13 -69 -42 -81 -34 -5 3 -9 1 -9 -4
0 -5 -17 -18 -37 -27 -20 -10 -59 -31 -85 -46 -54 -32 -63 -35 -52 -17 4 7 3
8 -5 4 -6 -4 -9 -11 -6 -16 3 -5 1 -11 -5 -15 -5 -3 -10 3 -10 14 0 24 -15 28
-27 6 -14 -25 -35 -2 -24 26 l10 24 0 -24 c1 -19 4 -21 16 -11 8 6 18 9 23 6
6 -3 15 1 22 9 14 17 40 20 40 4 0 -5 5 -7 11 -4 7 5 4 14 -7 26 -9 10 -14 20
-11 20 4 1 10 2 15 3 4 1 14 5 22 10 10 6 9 2 -3 -11 -13 -15 -15 -23 -7 -28
7 -4 16 -1 21 6 5 8 9 10 9 6 0 -5 7 -1 16 7 8 9 20 14 25 11 5 -4 9 -1 9 5 0
6 -11 8 -27 5 -24 -5 -26 -5 -10 5 11 7 30 10 43 7 13 -2 24 0 24 4 0 5 10 8
22 6 14 -1 23 4 23 13 0 10 8 14 24 12 16 -3 21 0 16 9 -5 8 -4 10 3 5 7 -4
12 -11 12 -16z m250 -27 c0 -2 -11 4 -25 13 -21 14 -31 15 -51 5 -39 -17 -43
-12 -5 8 33 18 35 18 58 -2 12 -11 23 -22 23 -24z m203 32 c3 -6 -3 -11 -12
-11 -10 0 -18 5 -18 11 0 7 6 12 13 12 7 0 15 -5 17 -12z m137 11 c0 -3 -4 -8
-10 -11 -5 -3 -10 -1 -10 4 0 6 5 11 10 11 6 0 10 -2 10 -4z m154 -54 c-4 -12
-10 -20 -14 -17 -4 3 -7 -6 -7 -19 0 -29 -63 -153 -115 -228 -39 -55 -66 -83
-36 -35 8 12 15 37 16 56 1 38 12 57 12 20 l0 -24 21 25 c11 14 25 37 31 53 5
15 14 27 18 27 5 0 7 20 5 45 -2 25 0 43 5 40 4 -3 10 2 14 10 3 8 2 14 -2 14
-20 -3 -32 2 -26 12 4 8 9 8 13 1 4 -7 12 -8 21 -2 13 8 13 11 1 22 -12 11
-13 10 -6 -2 7 -12 6 -13 -6 -2 -12 11 -12 14 1 22 11 7 19 5 28 -7 9 -13 12
-14 13 -2 1 8 1 19 -1 24 -1 7 2 6 9 0 6 -6 8 -20 5 -33z m-1359 8 c3 -5 1
-10 -4 -10 -6 0 -11 5 -11 10 0 6 2 10 4 10 3 0 8 -4 11 -10z m741 -5 c-1 -8
-8 -21 -16 -28 -10 -9 -11 -9 -6 1 4 6 4 12 -1 12 -13 0 -76 -40 -104 -67 -17
-16 -29 -21 -33 -14 -4 6 -1 11 8 11 8 0 16 5 18 11 2 7 91 65 135 88 1 1 0
-6 -1 -14z m514 11 c0 -2 -8 -10 -17 -17 -16 -13 -17 -12 -4 4 13 16 21 21 21
13z m-1332 -40 c0 -14 -6 -27 -14 -30 -10 -4 -11 1 -4 20 13 33 12 37 -2 28
-7 -4 -8 -3 -4 5 11 17 24 5 24 -23z m1001 21 c8 -10 7 -14 -2 -14 -8 0 -14 6
-14 14 0 7 1 13 2 13 2 0 8 -6 14 -13z m105 -2 c4 -10 -1 -15 -15 -15 -17 0
-18 2 -7 15 16 18 15 18 22 0z m31 5 c3 -5 1 -10 -4 -10 -6 0 -11 5 -11 10 0
6 2 10 4 10 3 0 8 -4 11 -10z m50 0 c-4 -6 7 -8 27 -5 l33 5 -33 -11 c-29 -9
-32 -12 -21 -27 12 -16 12 -16 -5 0 -17 15 -17 48 -1 48 4 0 3 -4 0 -10z m83
-25 c-3 -3 -9 2 -12 12 -6 14 -5 15 5 6 7 -7 10 -15 7 -18z m-1173 -5 c3 -6
-1 -7 -9 -4 -18 7 -21 14 -7 14 6 0 13 -4 16 -10z m323 -9 c-7 -9 -13 -18 -15
-20 -1 -2 -1 5 0 16 0 11 7 20 14 20 10 0 10 -4 1 -16z m639 13 c-3 -3 -12 -4
-19 -1 -8 3 -5 6 6 6 11 1 17 -2 13 -5z m-1113 -49 c-8 -13 -13 -29 -10 -34 4
-5 2 -12 -3 -15 -21 -13 -21 16 -1 44 26 36 37 40 14 5z m853 -15 c6 0 17 -7
24 -17 12 -14 9 -13 -21 3 -19 10 -39 17 -45 15 -5 -1 -7 1 -3 5 4 4 2 14 -4
23 -7 9 -1 6 13 -6 14 -13 30 -23 36 -23z m383 30 c0 -5 -7 -10 -16 -10 -8 0
-12 -4 -9 -10 10 -16 -1 -11 -16 7 -8 9 -9 14 -4 11 6 -4 17 -3 25 3 19 11 20
11 20 -1z m-265 -11 c11 -16 1 -19 -13 -3 -7 8 -8 14 -3 14 5 0 13 -5 16 -11z
m215 -42 c0 -5 -4 -5 -10 -2 -5 3 -10 14 -10 23 0 15 2 15 10 2 5 -8 10 -19
10 -23z m-76 -3 c5 -13 4 -14 -7 -6 -8 7 -18 8 -22 4 -5 -4 -5 -1 -1 6 10 17
23 15 30 -4z m300 0 c3 -8 2 -12 -4 -9 -6 3 -10 10 -10 16 0 14 7 11 14 -7z
m-977 -3 c7 7 13 9 13 6 0 -3 -40 -37 -90 -76 -49 -40 -90 -67 -90 -61 0 6 -4
9 -9 6 -5 -4 -7 3 -4 14 3 11 9 17 14 14 5 -3 6 -11 2 -17 -6 -10 20 6 37 23
3 3 19 13 35 22 19 10 31 26 33 42 2 15 8 24 13 21 5 -4 9 -1 9 6 0 10 3 10
12 1 8 -8 15 -9 25 -1z m548 -9 c-3 -3 -11 0 -18 7 -9 10 -8 11 6 5 10 -3 15
-9 12 -12z m-648 -28 c1 -16 -1 -21 -3 -11 -3 9 -10 17 -15 17 -6 0 -7 -4 -4
-10 3 -5 1 -10 -4 -10 -9 0 -9 14 -2 48 1 2 7 2 14 0 6 -3 13 -18 14 -34z
m-359 -19 c0 -19 -3 -35 -7 -35 -4 0 -7 -9 -7 -20 0 -13 5 -19 13 -15 11 3 11
0 2 -16 -8 -15 -8 -19 0 -15 6 4 11 2 11 -4 0 -6 -8 -10 -17 -8 -13 3 -17 12
-16 37 2 28 0 31 -13 20 -8 -7 -13 -17 -11 -24 3 -6 -1 -19 -9 -30 -11 -15
-14 -16 -14 -3 0 27 21 76 34 81 9 4 12 15 8 33 -4 20 -2 25 8 19 10 -6 12 -4
7 9 -4 9 -3 15 2 12 5 -3 9 -22 9 -41z m644 28 c8 -39 4 -63 -11 -61 -9 2 -15
-2 -14 -9 3 -12 -52 -35 -61 -26 -3 4 -6 1 -6 -5 0 -7 7 -12 15 -12 18 0 19
-9 4 -30 -9 -12 -10 -12 -5 4 5 13 2 17 -8 13 -8 -3 -16 2 -19 13 -3 11 0 21
6 23 6 2 3 6 -7 10 -9 4 -15 3 -11 -2 3 -5 1 -12 -5 -16 -6 -4 -8 -10 -6 -14
3 -4 -5 -7 -17 -6 -28 2 -73 -25 -57 -35 15 -9 -27 -41 -44 -34 -7 3 -21 -4
-31 -16 -10 -11 -23 -20 -29 -20 -6 0 -3 7 7 14 9 7 36 29 60 49 91 77 119 96
138 92 13 -3 19 1 17 10 -2 8 13 26 32 39 37 26 49 31 52 19z m53 -3 c-3 -5
-1 -10 4 -10 6 0 11 -4 11 -8 0 -5 -7 -9 -15 -9 -15 0 -20 18 -8 30 10 10 15
8 8 -3z m154 -3 c8 -10 7 -14 -2 -14 -8 0 -14 6 -14 14 0 7 1 13 2 13 2 0 8
-6 14 -13z m71 8 c0 -1 -10 -10 -22 -21 -14 -12 -18 -13 -10 -3 6 9 10 18 7
21 -3 2 2 5 10 5 8 0 15 -1 15 -2z m157 -17 c2 -17 0 -19 -7 -8 -5 8 -6 18 -4
22 8 12 10 10 11 -14z m135 -20 c-10 -10 -10 -8 -2 37 1 6 4 2 7 -9 3 -10 0
-23 -5 -28z m-408 24 c3 -5 -1 -9 -9 -9 -8 0 -12 4 -9 9 3 4 7 8 9 8 2 0 6 -4
9 -8z m191 -2 c3 -5 1 -10 -4 -10 -6 0 -11 5 -11 10 0 6 2 10 4 10 3 0 8 -4
11 -10z m-681 -31 c-9 -15 -20 -10 -20 10 0 15 3 17 13 9 7 -6 10 -14 7 -19z
m419 15 c-3 -9 0 -20 8 -25 9 -6 10 -9 2 -9 -6 0 -15 5 -18 10 -7 11 0 40 9
40 3 0 3 -7 -1 -16z m237 -17 c13 4 13 3 0 -6 -11 -8 -18 -6 -27 6 -7 9 -13
22 -13 27 1 6 6 2 13 -10 7 -12 19 -19 27 -17z m135 23 c3 -5 1 -10 -4 -10 -6
0 -11 5 -11 10 0 6 2 10 4 10 3 0 8 -4 11 -10z m262 -12 c-3 -8 -6 -5 -6 6 -1
11 2 17 5 13 3 -3 4 -12 1 -19z m-1297 2 c0 -5 -2 -10 -4 -10 -3 0 -8 5 -11
10 -3 6 -1 10 4 10 6 0 11 -4 11 -10z m713 -21 c-8 -8 -13 -7 -18 2 -5 8 -4
10 3 5 7 -4 12 -2 12 5 0 7 3 9 7 6 4 -4 2 -12 -4 -18z m277 -9 c0 -5 -5 -10
-11 -10 -5 0 -7 5 -4 10 3 6 8 10 11 10 2 0 4 -4 4 -10z m-975 -19 c3 -5 2
-12 -3 -15 -5 -3 -9 1 -9 9 0 17 3 19 12 6z m112 -13 c-3 -8 -6 -5 -6 6 -1 11
2 17 5 13 3 -3 4 -12 1 -19z m23 -9 c-6 -10 -13 -19 -16 -19 -2 0 0 8 5 19 6
10 7 22 3 26 -4 5 -1 5 6 1 9 -5 9 -12 2 -27z m649 8 c0 -9 -2 -9 -5 0 -3 7
-13 9 -22 6 -14 -4 -14 -3 -2 5 16 12 30 7 29 -11z m241 -8 c0 -11 5 -17 10
-14 6 3 10 1 10 -4 0 -14 -17 -14 -26 0 -4 8 -9 7 -15 -2 -6 -10 -9 -10 -9 -2
0 6 5 15 11 18 6 4 8 14 5 22 -3 8 -1 11 4 8 6 -3 10 -15 10 -26z m-460 6 c0
-8 -2 -15 -4 -15 -2 0 -6 7 -10 15 -3 8 -1 15 4 15 6 0 10 -7 10 -15z m-375
-17 c5 4 5 1 1 -6 -4 -7 -11 -10 -16 -7 -5 3 -11 -3 -13 -12 -3 -10 -5 -2 -6
17 0 31 1 33 13 18 7 -10 17 -14 21 -10z m780 12 c3 -6 -1 -7 -9 -4 -18 7 -21
14 -7 14 6 0 13 -4 16 -10z m-221 -8 c3 -5 -1 -9 -9 -9 -8 0 -15 4 -15 9 0 4
4 8 9 8 6 0 12 -4 15 -8z m-183 -56 c-6 -7 -8 -16 -4 -19 3 -4 1 -7 -5 -7 -7
0 -12 5 -12 11 0 5 -6 7 -12 3 -8 -4 -10 -3 -5 2 5 5 14 9 20 9 7 1 11 7 9 14
-1 7 2 10 8 6 8 -5 8 -11 1 -19z m279 15 c0 -5 -7 -12 -16 -15 -14 -5 -15 -4
-4 9 14 17 20 19 20 6z m-333 -23 c-3 -8 -6 -5 -6 6 -1 11 2 17 5 13 3 -3 4
-12 1 -19z m-662 -19 c1 -11 -2 -22 -7 -25 -4 -3 -8 -14 -8 -25 0 -13 4 -18
12 -13 7 4 8 3 4 -5 -4 -6 -12 -9 -17 -6 -5 4 -10 -21 -11 -57 -1 -52 -2 -55
-5 -19 -5 47 15 186 25 176 3 -3 6 -15 7 -26z m262 12 c-2 -10 -27 -46 -56
-80 -29 -33 -73 -91 -97 -128 -30 -46 -44 -61 -44 -46 0 32 10 53 26 53 8 0
11 6 7 17 -4 11 -3 14 5 9 7 -4 12 -2 12 6 0 7 16 26 35 41 20 16 32 33 29 39
-4 7 -2 8 4 4 19 -11 14 5 -5 20 -16 12 -16 12 5 7 12 -3 29 0 37 7 13 11 13
14 -2 26 -16 13 -16 13 -1 8 11 -4 22 2 30 15 16 26 19 26 15 2z m480 4 c0 -8
-4 -12 -9 -9 -5 3 -6 10 -3 15 9 13 12 11 12 -6z m37 -12 l-5 -28 21 23 c23
24 36 30 23 10 -8 -14 -9 -18 -13 -45 -1 -11 -3 -13 -7 -5 -2 6 -11 12 -19 12
-14 0 -20 41 -7 53 11 11 12 8 7 -20z m143 21 c-3 -3 -12 -4 -19 -1 -8 3 -5 6
6 6 11 1 17 -2 13 -5z m157 -2 c2 -4 -5 -9 -17 -9 -17 -2 -19 0 -7 7 18 12 18
12 24 2z m-517 -22 c-4 -28 -15 -35 -12 -8 3 27 3 28 10 28 3 0 4 -9 2 -20z
m486 -22 c-5 -10 -33 10 -33 23 0 5 9 4 19 -3 11 -7 17 -16 14 -20z m137 21
c0 -5 5 -7 12 -3 7 4 8 3 4 -5 -6 -9 -11 -9 -22 0 -17 14 -18 19 -4 19 6 0 10
-5 10 -11z m-535 -17 c-3 -3 -11 0 -18 7 -9 10 -8 11 6 5 10 -3 15 -9 12 -12z
m40 7 c11 -16 1 -19 -13 -3 -7 8 -8 14 -3 14 5 0 13 -5 16 -11z m305 7 c0 -3
-4 -8 -10 -11 -5 -3 -10 -1 -10 4 0 6 5 11 10 11 6 0 10 -2 10 -4z m117 -2
c-3 -3 -12 -4 -19 -1 -8 3 -5 6 6 6 11 1 17 -2 13 -5z m-642 -14 c3 -5 1 -10
-4 -10 -6 0 -11 5 -11 10 0 6 2 10 4 10 3 0 8 -4 11 -10z m259 -2 c-3 -4 -9
-8 -15 -8 -5 0 -9 4 -9 8 0 5 7 9 15 9 8 0 12 -4 9 -9z m-212 -26 c3 -10 0
-19 -6 -19 -7 0 -13 9 -13 19 -1 10 2 18 6 18 5 0 11 -8 13 -18z m492 6 c-3
-4 -9 -8 -15 -8 -5 0 -9 4 -9 8 0 5 7 9 15 9 8 0 12 -4 9 -9z m-624 -11 c-14
-8 -24 -19 -22 -25 1 -7 -4 -11 -10 -9 -8 1 -12 -6 -11 -18 1 -11 0 -15 -3 -8
-4 8 -11 6 -23 -6 -20 -20 -24 -51 -7 -51 6 0 4 -4 -4 -9 -17 -12 -33 -4 -24
12 3 7 -8 -4 -24 -23 -17 -19 -28 -39 -25 -45 4 -5 3 -7 -2 -3 -4 4 -14 0 -21
-10 -18 -23 -17 -33 2 -25 13 5 14 2 6 -13 -6 -10 -17 -35 -26 -54 -8 -19 -16
-29 -16 -22 0 15 -26 16 -36 1 -3 -6 -2 -15 4 -21 13 -13 4 -45 -15 -52 -11
-5 -13 -1 -8 15 5 16 4 19 -5 14 -17 -11 49 106 102 180 58 81 158 185 177
185 10 0 6 -5 -9 -13z m365 3 c3 -5 1 -10 -4 -10 -6 0 -11 5 -11 10 0 6 2 10
4 10 3 0 8 -4 11 -10z m95 6 c0 -2 -8 -10 -17 -17 -16 -13 -17 -12 -4 4 13 16
21 21 21 13z m-55 -16 c3 -5 -1 -10 -10 -10 -9 0 -13 5 -10 10 3 6 8 10 10 10
2 0 7 -4 10 -10z m145 0 c0 -5 -4 -10 -10 -10 -5 0 -10 5 -10 10 0 6 5 10 10
10 6 0 10 -4 10 -10z m-493 -6 c-3 -3 -12 -4 -19 -1 -8 3 -5 6 6 6 11 1 17 -2
13 -5z m573 -4 c0 -5 -2 -10 -4 -10 -3 0 -8 5 -11 10 -3 6 -1 10 4 10 6 0 11
-4 11 -10z m290 -25 c-18 -19 -38 -31 -43 -28 -6 4 -2 9 9 13 10 4 28 17 38
29 11 11 22 21 25 21 2 0 -10 -16 -29 -35z m-820 21 c0 -3 -4 -8 -10 -11 -5
-3 -10 -1 -10 4 0 6 5 11 10 11 6 0 10 -2 10 -4z m581 -20 c-6 -7 -7 -17 -3
-21 4 -5 1 -5 -5 -1 -7 4 -13 2 -13 -4 0 -6 -4 -8 -10 -5 -5 3 -10 11 -10 17
0 6 3 8 7 5 9 -10 34 14 26 26 -3 6 -1 7 6 3 8 -6 9 -12 2 -20z m-546 4 c-3
-5 -12 -10 -18 -10 -7 0 -6 4 3 10 19 12 23 12 15 0z m90 0 c3 -6 -1 -7 -9 -4
-18 7 -21 14 -7 14 6 0 13 -4 16 -10z m44 -7 c-6 -7 -15 -10 -20 -7 -13 8 -3
21 15 21 12 0 13 -4 5 -14z m60 0 c7 -1 18 -6 24 -12 7 -7 0 -8 -24 -1 -18 6
-35 10 -36 10 -2 0 -3 5 -3 11 0 6 5 7 13 2 6 -4 18 -8 26 -10z m84 -2 c4 -18
2 -18 -20 -8 -23 10 -23 12 -6 18 10 4 19 8 19 8 1 1 4 -8 7 -18z m-246 -6 c0
-8 -4 -12 -9 -9 -4 3 -8 9 -8 15 0 5 4 9 8 9 5 0 9 -7 9 -15z m139 -20 c18 -9
23 -15 12 -15 -9 0 -20 5 -23 10 -5 8 -11 7 -21 -1 -12 -10 -13 -9 -8 5 7 19
5 19 40 1z m-191 -13 c-3 -3 -11 0 -18 7 -9 10 -8 11 6 5 10 -3 15 -9 12 -12z
m129 -11 c-2 -3 -12 3 -22 13 -16 17 -16 18 5 5 12 -7 20 -15 17 -18z m203 3
c-3 -3 -12 -4 -19 -1 -8 3 -5 6 6 6 11 1 17 -2 13 -5z m-458 -27 c0 -8 -2 -8
-6 1 -4 10 -8 10 -21 0 -15 -12 -16 -11 -3 4 14 19 32 15 30 -5z m501 15 c0
-5 -7 -9 -15 -9 -8 0 -12 4 -9 9 3 4 9 8 15 8 5 0 9 -4 9 -8z m-156 -11 c3 -4
-4 -7 -14 -6 -27 2 -33 10 -10 12 11 1 22 -2 24 -6z m428 -54 c-17 -20 -191
-109 -204 -105 -6 2 1 16 17 31 22 19 31 23 38 14 7 -9 10 -9 14 1 2 6 13 12
24 12 25 0 81 35 71 45 -4 5 -2 5 5 1 6 -3 14 -2 18 4 3 5 11 10 17 10 7 0 7
-4 0 -13z m-325 -3 c-3 -3 -12 -4 -19 -1 -8 3 -5 6 6 6 11 1 17 -2 13 -5z
m-183 -19 c3 -9 0 -15 -9 -15 -9 0 -12 6 -9 15 4 8 7 15 9 15 2 0 5 -7 9 -15z
m-158 -25 c0 -12 -4 -16 -9 -11 -5 5 -6 14 -3 20 10 15 12 14 12 -9z m69 2
c-3 -3 -11 0 -18 7 -9 10 -8 11 6 5 10 -3 15 -9 12 -12z m-495 -16 c0 -8 -4
-18 -10 -21 -6 -4 -7 1 -3 11 4 12 3 15 -6 10 -7 -5 -11 -16 -8 -26 3 -11 -2
-20 -12 -23 -15 -4 -16 0 -7 29 11 34 46 49 46 20z m527 -18 c-3 -8 -6 -5 -6
6 -1 11 2 17 5 13 3 -3 4 -12 1 -19z m321 -3 c-3 -3 -9 2 -12 12 -6 14 -5 15
5 6 7 -7 10 -15 7 -18z m32 5 c0 -5 -5 -10 -11 -10 -5 0 -7 5 -4 10 3 6 8 10
11 10 2 0 4 -4 4 -10z m-704 -20 c0 -11 -4 -20 -9 -20 -4 0 -5 -6 -1 -12 5 -9
4 -10 -4 -3 -6 6 -9 20 -6 33 8 27 20 29 20 2z m-242 -96 c3 -8 2 -14 -3 -14
-10 0 -21 52 -20 94 1 24 3 20 9 -18 5 -26 11 -54 14 -62z m701 87 c-3 -6 -11
-11 -16 -11 -5 0 -4 6 3 14 14 16 24 13 13 -3z m195 -21 c0 -5 -4 -10 -9 -10
-6 0 -13 5 -16 10 -3 6 1 10 9 10 9 0 16 -4 16 -10z m-871 -30 c-13 -37 -22
-39 -13 -4 5 19 4 25 -5 20 -6 -4 -11 -2 -11 3 0 6 9 11 19 11 18 0 19 -3 10
-30z m488 10 c1 -11 -2 -20 -7 -20 -6 0 -7 17 -1 38 3 8 7 -1 8 -18z m100 0
c3 -11 10 -20 15 -20 6 0 8 7 5 14 -4 10 -1 13 7 10 8 -3 17 -1 21 5 7 13 65
15 65 2 0 -4 13 -8 29 -7 16 1 27 4 24 9 -2 4 5 7 16 7 11 0 23 -4 26 -10 4
-6 -1 -7 -12 -3 -11 4 -15 2 -10 -3 13 -14 -95 -33 -112 -20 -11 8 -13 8 -7
-1 5 -10 -5 -13 -41 -13 -26 0 -97 -5 -156 -11 -101 -11 -110 -10 -125 7 -16
17 -16 17 2 3 18 -13 19 -12 13 6 -7 20 -7 20 8 1 13 -17 15 -17 15 -4 0 10 8
16 19 15 11 0 17 -5 15 -9 -3 -5 -10 -6 -15 -3 -5 4 -9 2 -9 -4 0 -11 113 -2
118 10 2 4 10 5 19 2 11 -4 14 -2 9 5 -4 7 -1 12 8 12 9 0 16 5 16 10 0 19 32
10 37 -10z m-267 -4 c0 -3 -4 -8 -10 -11 -5 -3 -10 -1 -10 4 0 6 5 11 10 11 6
0 10 -2 10 -4z m-14 -55 c-5 -8 -63 -24 -91 -25 -5 -1 -12 -4 -15 -7 -5 -5
-86 -39 -94 -39 -3 0 -1 41 3 47 0 1 13 -2 27 -7 16 -7 23 -7 19 0 -3 6 1 10
10 10 9 0 14 3 11 8 -2 4 21 9 52 10 31 2 59 5 61 8 8 8 22 4 17 -5z"/>
<path d="M5100 8760 c0 -5 5 -10 11 -10 5 0 7 5 4 10 -3 6 -8 10 -11 10 -2 0
-4 -4 -4 -10z"/>
<path d="M5447 8393 c-13 -13 -7 -21 13 -16 11 3 20 9 20 14 0 10 -24 12 -33
2z"/>
<path d="M5290 8295 c-11 -13 -10 -14 4 -9 9 3 16 10 16 15 0 13 -6 11 -20 -6z"/>
<path d="M4940 7800 c0 -5 5 -10 11 -10 5 0 7 5 4 10 -3 6 -8 10 -11 10 -2 0
-4 -4 -4 -10z"/>
<path d="M3373 8070 c-40 -16 -57 -56 -61 -150 -9 -184 62 -538 154 -769 122
-305 260 -514 549 -831 72 -78 155 -176 185 -219 151 -212 247 -442 288 -686
9 -55 16 -101 17 -102 0 -1 60 -7 133 -13 123 -11 207 -26 527 -95 149 -32
329 -35 475 -8 l95 18 3 45 c9 150 63 373 124 515 75 173 177 319 390 558 238
265 349 423 459 652 133 276 218 614 222 880 2 129 -11 178 -53 200 -51 26
-89 15 -128 -37 -7 -9 -38 -90 -68 -180 -123 -364 -298 -642 -560 -886 -126
-118 -250 -206 -379 -271 -401 -200 -797 -204 -1211 -12 -151 71 -298 177
-453 326 -265 256 -442 556 -552 935 -34 114 -86 158 -156 130z"/>
<path d="M5010 7475 c-205 -58 -338 -284 -287 -491 32 -127 117 -233 235 -291
51 -25 67 -28 162 -28 97 0 110 2 171 31 82 39 159 116 201 202 62 125 48 301
-33 419 -40 58 -116 117 -186 144 -75 28 -189 34 -263 14z"/>
<path d="M7146 6525 c-88 -31 -137 -116 -230 -396 -35 -107 -73 -218 -85 -248
-76 -189 -240 -482 -270 -480 -9 0 -11 3 -4 5 7 3 9 12 6 21 -5 12 -3 14 7 8
10 -6 12 -4 7 9 -5 11 -3 15 5 10 8 -5 9 -2 5 10 -4 9 -3 15 2 12 13 -8 163
361 235 579 39 119 67 231 59 238 -2 3 -26 -2 -51 -11 -34 -11 -67 -36 -118
-86 -71 -72 -131 -172 -199 -336 -51 -122 -151 -315 -203 -392 -51 -76 -61
-95 -43 -83 5 3 12 1 16 -4 3 -6 -3 -8 -13 -6 -9 1 -25 -2 -34 -9 -13 -10 6
-11 95 -8 108 4 114 3 167 -25 40 -21 64 -43 90 -81 l34 -53 18 23 c20 26 23
43 7 32 -8 -4 -8 0 0 15 7 12 9 26 6 31 -4 6 -2 9 3 8 5 -2 19 8 30 22 30 35
27 21 -3 -20 -14 -19 -25 -38 -25 -44 0 -48 205 303 357 614 81 164 166 320
210 386 42 63 76 126 79 146 8 47 -18 96 -61 114 -41 17 -49 17 -99 -1z m37
-12 c-7 -2 -19 -2 -25 0 -7 3 -2 5 12 5 14 0 19 -2 13 -5z m57 -3 c18 -12 2
-12 -25 0 -13 6 -15 9 -5 9 8 0 22 -4 30 -9z m-66 -22 c-3 -4 -21 -8 -40 -8
-20 0 -33 4 -29 10 3 5 21 9 40 8 19 -1 32 -5 29 -10z m126 -54 c0 -24 -37
-99 -56 -114 -18 -14 -18 -14 -2 5 21 25 42 108 35 137 -6 22 -6 22 8 4 8 -11
15 -25 15 -32z m-237 -14 c-3 -11 -9 -20 -15 -20 -5 0 -4 9 2 20 6 11 12 20
14 20 2 0 2 -9 -1 -20z m-17 -42 c4 -7 4 -10 -1 -6 -4 4 -14 0 -22 -10 -13
-15 -13 -15 -3 6 12 25 16 27 26 10z m175 -93 c-3 -5 -17 -27 -30 -47 -12 -21
-25 -38 -27 -38 -7 0 16 41 37 69 14 17 16 28 9 41 -6 10 -10 22 -10 27 1 4 7
-3 14 -17 8 -14 11 -29 7 -35z m-219 18 c-7 -12 -7 -25 0 -37 5 -9 7 -20 4
-23 -3 -4 -6 0 -6 8 -1 8 -7 3 -15 -11 -13 -24 -14 -24 -15 -4 0 26 29 98 36
91 3 -3 1 -14 -4 -24z m-150 -43 c-12 -11 -25 -19 -29 -19 -16 4 -43 -14 -36
-24 3 -6 1 -7 -5 -3 -7 4 -12 2 -12 -5 0 -7 -3 -9 -7 -6 -3 4 -11 -3 -17 -14
-6 -12 -15 -21 -21 -21 -5 0 -21 -9 -35 -21 l-25 -22 25 30 c14 16 35 38 48
48 12 10 28 24 35 31 14 13 77 45 91 46 6 0 0 -9 -12 -20z m298 -45 c-7 -8
-16 -15 -21 -15 -5 0 -1 8 9 18 20 22 31 19 12 -3z m-300 -22 c-11 -17 -11
-17 -6 0 3 10 6 24 7 30 0 9 2 9 5 0 3 -7 0 -20 -6 -30z m106 -35 c-9 -12 -16
-17 -16 -11 0 7 5 15 10 18 6 4 8 11 5 16 -4 5 -3 15 2 22 5 9 8 7 11 -5 2
-10 -4 -28 -12 -40z m-162 20 c-3 -4 -9 -8 -15 -8 -5 0 -9 4 -9 8 0 5 7 9 15
9 8 0 12 -4 9 -9z m361 3 c-9 -8 -36 -10 -30 -2 2 4 11 8 20 8 8 0 13 -3 10
-6z m-319 -46 c-4 -20 -16 -54 -27 -78 -22 -47 -21 -40 7 50 21 70 30 82 20
28z m-25 -2 c-12 -20 -14 -14 -5 12 4 9 9 14 11 11 3 -2 0 -13 -6 -23z m299
-23 c-25 -63 -69 -150 -76 -150 -2 0 0 9 6 21 6 11 9 25 7 32 -6 17 12 49 24
42 5 -4 9 3 9 14 0 11 5 23 11 26 5 4 8 12 6 18 -4 10 20 47 29 47 2 0 -5 -23
-16 -50z m-27 25 c-3 -9 -8 -14 -10 -11 -3 3 -2 9 2 15 9 16 15 13 8 -4z
m-152 -32 c-12 -20 -14 -14 -5 12 4 9 9 14 11 11 3 -2 0 -13 -6 -23z m-256
-13 c-3 -5 -12 -10 -18 -10 -7 0 -6 4 3 10 19 12 23 12 15 0z m255 -17 c0 -5
-5 -15 -10 -23 -8 -12 -10 -11 -10 8 0 12 5 22 10 22 6 0 10 -3 10 -7z m-300
-23 c-6 -11 -13 -20 -16 -20 -2 0 0 9 6 20 6 11 13 20 16 20 2 0 0 -9 -6 -20z
m330 -32 c0 -6 -6 -5 -15 2 -8 7 -15 14 -15 16 0 2 7 1 15 -2 8 -4 15 -11 15
-16z m-52 -8 c-14 -22 -24 -19 -15 5 4 8 11 15 17 15 6 0 6 -7 -2 -20z m-321
-53 c-7 -20 -15 -37 -20 -37 -4 0 0 16 8 36 8 20 15 39 15 42 0 3 2 3 4 1 3
-2 -1 -21 -7 -42z m168 23 c-6 -30 12 -34 19 -4 4 15 9 24 11 22 12 -12 -135
-382 -153 -385 -6 -2 -12 2 -12 7 0 6 5 10 10 10 6 0 10 14 10 30 0 17 5 30
13 30 9 0 9 2 -1 8 -18 12 -12 62 8 59 8 -1 18 -6 21 -11 4 -5 10 7 14 25 4
19 14 43 21 54 16 23 19 49 4 40 -6 -3 -7 1 -3 10 4 12 8 13 13 5 5 -8 9 -7
14 5 7 19 -1 38 -13 31 -4 -3 -8 1 -8 9 0 8 7 15 14 15 8 0 11 -4 8 -10 -3 -5
-1 -10 4 -10 6 0 11 7 11 15 0 14 -12 19 -32 16 -5 0 -8 6 -8 14 0 9 6 12 15
8 9 -3 15 -2 14 3 -2 13 0 24 5 24 3 0 3 -9 1 -20z m120 -66 c-24 -50 -28 -37
-8 22 11 31 19 42 21 31 2 -10 -4 -34 -13 -53z m136 -21 c-12 -20 -14 -14 -5
12 4 9 9 14 11 11 3 -2 0 -13 -6 -23z m-462 -10 c-7 -20 -6 -28 3 -35 9 -5 10
-8 1 -8 -6 0 -14 4 -17 9 -6 10 10 61 19 61 2 0 0 -12 -6 -27z m445 -27 c-3
-8 -13 -17 -22 -21 -13 -5 -13 -2 3 15 21 24 26 25 19 6z m-449 -39 c6 -5 3
-7 -7 -4 -12 4 -18 -2 -23 -24 -4 -16 -11 -29 -16 -29 -12 0 -12 1 7 45 8 20
18 33 22 29 4 -5 12 -13 17 -17z m289 -3 c3 -8 2 -12 -3 -9 -5 3 -13 -4 -16
-16 -4 -11 -9 -18 -11 -16 -4 4 16 57 22 57 1 0 5 -7 8 -16z m123 -29 c-16
-17 -17 -14 -10 14 4 15 8 19 13 10 5 -6 3 -18 -3 -24z m-166 -48 c-10 -9 -11
-8 -5 6 3 10 9 15 12 12 3 -3 0 -11 -7 -18z m109 -59 c-23 -40 -38 -64 -34
-53 4 11 8 30 8 41 1 12 6 20 12 17 6 -2 16 8 23 23 10 22 9 29 -1 37 -9 6 -8
7 5 3 9 -3 17 0 17 6 0 6 3 9 6 5 3 -3 -13 -39 -36 -79z m-425 28 c0 -13 -3
-22 -6 -20 -10 6 -20 -26 -12 -38 3 -6 1 -8 -4 -5 -6 4 -16 -7 -22 -25 -6 -17
-13 -29 -16 -26 -5 4 51 138 58 138 1 0 2 -11 2 -24z m291 -43 c-2 -9 -8 -19
-14 -21 -7 -2 -12 -12 -12 -22 0 -10 -7 -20 -15 -24 -8 -3 -15 -12 -15 -19 0
-8 -8 -21 -17 -28 -13 -11 -12 -5 5 21 12 19 29 52 38 73 17 38 34 50 30 20z
m-148 -108 c-12 -24 -23 -43 -25 -41 -5 5 32 86 39 86 4 0 -2 -20 -14 -45z
m232 25 c-6 -11 -13 -20 -16 -20 -2 0 0 9 6 20 6 11 13 20 16 20 2 0 0 -9 -6
-20z m-480 -64 c-30 -49 -36 -46 -8 3 12 22 24 38 26 36 3 -2 -6 -20 -18 -39z
m432 -15 c-59 -103 -80 -133 -86 -123 -3 5 0 12 8 15 17 7 39 67 25 67 -6 0
-7 5 -3 11 4 8 9 7 15 -2 6 -10 13 -2 25 26 10 22 17 43 16 46 0 3 5 6 13 6
10 0 7 -13 -13 -46z m-471 -49 c-5 -10 -18 -25 -27 -33 -11 -9 -9 -2 6 19 26
35 36 42 21 14z m297 -26 c-10 -7 -14 -17 -10 -21 4 -5 1 -5 -7 0 -12 7 -11
10 4 22 24 17 36 17 13 -1z m-198 -46 c20 -6 21 -8 5 -8 -11 0 -31 4 -45 8
-20 6 -21 8 -5 8 11 0 31 -4 45 -8z m85 -30 c3 -6 -1 -7 -9 -4 -18 7 -21 14
-7 14 6 0 13 -4 16 -10z m75 -57 c10 -12 20 -19 24 -16 3 3 6 -1 6 -10 0 -8 3
-24 7 -34 3 -10 -10 6 -30 36 -21 29 -37 58 -36 65 0 6 3 4 6 -4 3 -8 14 -25
23 -37z"/>
<path d="M7056 6033 c-6 -14 -5 -15 5 -6 7 7 10 15 7 18 -3 3 -9 -2 -12 -12z"/>
<path d="M6656 5728 c3 -4 9 -8 15 -8 5 0 9 4 9 8 0 5 -7 9 -15 9 -8 0 -12 -4
-9 -9z"/>
<path d="M7392 6329 c-77 -23 -153 -131 -262 -370 -119 -262 -233 -468 -381
-691 -42 -64 -101 -162 -130 -218 -101 -198 -243 -311 -536 -429 -118 -48
-305 -96 -428 -110 -49 -6 -153 -11 -230 -11 -174 -2 -175 -2 -175 8 0 4 51
14 113 21 160 18 406 65 522 100 294 89 549 251 642 408 44 75 29 161 -37 216
-71 60 -177 50 -455 -42 -429 -143 -598 -152 -1040 -60 -280 59 -347 69 -486
69 -201 0 -354 -34 -534 -120 -69 -33 -169 -94 -199 -121 -5 -4 0 -7 12 -6 11
0 19 4 17 7 -2 4 10 14 28 24 31 17 32 17 9 -1 -18 -15 -20 -21 -10 -31 11
-11 5 -12 -32 -9 -41 4 -49 1 -95 -38 -197 -167 -358 -411 -444 -670 -35 -105
-76 -307 -86 -418 l-7 -79 53 37 c95 65 173 104 281 139 144 48 281 66 484 66
230 0 361 -16 782 -95 266 -50 394 -65 565 -65 305 1 557 60 833 195 194 96
492 313 478 349 -3 7 2 16 12 20 14 5 15 4 4 -9 -7 -8 -8 -15 -3 -15 16 0 124
116 121 130 -2 8 4 14 12 15 8 1 14 7 12 14 -1 7 2 10 7 6 12 -7 146 159 223
276 193 295 355 682 483 1154 60 222 62 307 10 341 -31 20 -91 26 -133 13z
m-1 -30 c-42 -17 -79 -48 -110 -96 -17 -25 -31 -42 -31 -36 0 5 16 31 36 57
37 49 87 86 114 85 8 0 4 -5 -9 -10z m144 -19 c3 -5 1 -10 -4 -10 -6 0 -11 5
-11 10 0 6 2 10 4 10 3 0 8 -4 11 -10z m10 -90 c-4 -60 -87 -395 -101 -410 -3
-2 -4 15 -3 38 2 23 7 42 11 42 4 0 8 5 8 11 0 5 -4 7 -10 4 -5 -3 -10 1 -10
9 0 8 9 20 19 26 25 13 38 69 20 81 -11 7 -11 9 2 9 19 0 39 66 39 129 0 22 5
43 10 46 6 3 10 19 10 36 0 16 -4 29 -10 29 -5 0 -10 5 -10 10 0 6 7 10 15 10
12 0 13 -13 10 -70z m-319 -90 c0 -12 -4 -16 -9 -11 -5 5 -6 14 -3 20 10 15
12 14 12 -9z m-46 -80 c-6 -11 -13 -20 -16 -20 -2 0 0 9 6 20 6 11 13 20 16
20 2 0 0 -9 -6 -20z m-20 -50 c-6 -11 -13 -20 -16 -20 -2 0 0 9 6 20 6 11 13
20 16 20 2 0 0 -9 -6 -20z m320 0 c0 -5 -2 -10 -4 -10 -3 0 -8 5 -11 10 -3 6
-1 10 4 10 6 0 11 -4 11 -10z m-330 -51 c0 -6 -4 -7 -10 -4 -5 3 -10 11 -10
16 0 6 5 7 10 4 6 -3 10 -11 10 -16z m-23 -34 c0 -8 -4 -12 -9 -9 -5 3 -6 10
-3 15 9 13 12 11 12 -6z m126 8 c-7 -2 -19 -2 -25 0 -7 3 -2 5 12 5 14 0 19
-2 13 -5z m-137 -60 c-3 -4 -6 0 -6 8 0 8 -6 2 -14 -13 -8 -15 -12 -36 -9 -48
4 -14 1 -20 -11 -20 -16 0 -19 -7 -19 -43 0 -13 -3 -15 -13 -6 -11 9 -6 25 24
85 28 57 38 70 45 58 5 -8 6 -18 3 -21z m182 12 c-3 -3 -9 2 -12 12 -6 14 -5
15 5 6 7 -7 10 -15 7 -18z m-168 -51 c0 -8 -19 -13 -24 -6 -3 5 1 9 9 9 8 0
15 -2 15 -3z m291 -89 c-9 -30 -18 -50 -19 -45 -2 6 -8 8 -13 4 -15 -9 -10 12
5 25 8 7 13 19 12 29 -3 16 13 41 25 42 4 0 -1 -25 -10 -55z m-261 25 c0 -5
-2 -10 -4 -10 -3 0 -8 5 -11 10 -3 6 -1 10 4 10 6 0 11 -4 11 -10z m216 -16
c1 -9 0 -13 -4 -10 -3 4 -7 14 -8 22 -1 9 0 13 4 10 3 -4 7 -14 8 -22z m-116
10 c0 -8 -19 -13 -24 -6 -3 5 1 9 9 9 8 0 15 -2 15 -3z m-239 -37 c-10 -9 -11
-8 -5 6 3 10 9 15 12 12 3 -3 0 -11 -7 -18z m86 -49 c2 -12 1 -19 -3 -16 -3 3
-6 12 -8 20 -1 7 -5 20 -10 28 -7 12 -6 13 4 3 8 -7 15 -23 17 -35z m-87 28
c0 -3 -4 -8 -10 -11 -5 -3 -10 -1 -10 4 0 6 5 11 10 11 6 0 10 -2 10 -4z m366
-22 c18 -14 18 -14 -6 -3 -31 14 -36 19 -24 19 6 0 19 -7 30 -16z m-400 -36
c-18 -26 -22 -17 -5 14 6 11 13 17 16 15 3 -3 -2 -16 -11 -29z m59 10 c6 -4 2
-8 -7 -8 -10 0 -18 7 -18 17 0 9 3 12 8 7 4 -5 12 -12 17 -16z m344 -7 c0 -3
-6 -22 -13 -41 l-13 -35 0 41 c0 28 4 41 13 41 8 0 14 -3 13 -6z m-432 -48
c-7 -13 -35 -77 -41 -96 -3 -10 -10 -16 -15 -13 -8 6 44 116 55 116 3 0 3 -3
1 -7z m387 -61 c3 7 3 2 0 -12 -9 -36 -87 -220 -92 -216 -2 2 10 35 26 73 55
130 56 131 41 151 -13 15 -12 16 3 4 13 -10 17 -10 22 0z m-279 -52 c3 -6 -1
-7 -9 -4 -18 7 -21 14 -7 14 6 0 13 -4 16 -10z m-193 -32 c-17 -17 -15 -31 4
-24 11 4 14 1 12 -12 -2 -10 -12 -17 -26 -16 -12 0 -23 -3 -23 -8 -1 -4 -3
-12 -4 -18 -1 -5 -3 -15 -4 -21 0 -5 -6 -7 -13 -3 -8 5 -9 2 -5 -9 6 -17 -7
-24 -17 -9 -5 9 71 132 81 132 4 0 2 -5 -5 -12z m207 -11 c-2 -1 -13 -9 -24
-17 -19 -14 -19 -14 -6 3 7 9 18 17 24 17 6 0 8 -1 6 -3z m-153 -56 c-6 -9
-46 -22 -46 -15 0 3 10 9 23 14 29 11 29 11 23 1z m-606 -80 c0 -5 -8 -15 -17
-22 -11 -10 -14 -10 -9 -1 5 8 0 12 -16 12 -19 0 -20 -2 -8 -11 13 -8 12 -10
-3 -7 -29 5 -24 22 8 29 44 10 45 10 45 0z m53 2 c-7 -2 -19 -2 -25 0 -7 3 -2
5 12 5 14 0 19 -2 13 -5z m103 -24 c3 -5 -2 -6 -10 -3 -9 3 -16 1 -16 -6 0
-15 -17 -4 -30 20 -9 18 -8 18 20 9 16 -6 33 -15 36 -20z m322 19 c-5 -13 -38
-20 -38 -8 0 5 8 11 18 13 9 3 19 5 20 6 2 0 2 -4 0 -11z m-557 -24 c10 -13
10 -17 -2 -25 -8 -5 -18 -9 -24 -9 -5 0 -3 4 5 10 12 7 11 10 -5 16 -11 5 -20
3 -23 -4 -2 -6 -10 -8 -18 -5 -8 3 -14 1 -12 -5 2 -5 1 -10 -2 -9 -3 0 -15 -5
-27 -11 -13 -8 -30 -9 -44 -3 -20 7 -13 11 51 33 41 14 78 26 81 27 4 0 12 -6
20 -15z m989 -31 c-12 -21 -19 -29 -15 -19 3 11 0 24 -7 29 -9 6 -7 7 6 3 14
-5 17 -2 12 9 -3 9 -2 13 4 10 6 -3 10 -1 10 6 0 7 3 10 6 7 3 -4 -4 -23 -16
-45z m-442 16 c8 -12 8 -20 2 -24 -6 -3 -10 1 -10 9 0 21 -17 20 -29 -1 -13
-24 -25 -10 -12 14 13 25 35 25 49 2z m-268 -31 c21 -35 27 -84 9 -73 -6 4
-17 -1 -24 -11 -13 -18 -14 -17 -9 6 4 17 3 21 -4 12 -8 -11 -10 -11 -15 1 -4
12 1 14 24 10 21 -3 29 0 29 10 0 9 -9 13 -26 11 -23 -2 -26 9 -3 12 5 1 12 2
16 3 3 0 -4 12 -17 26 -13 14 -18 25 -12 25 7 0 21 -15 32 -32z m-2052 5 c-10
-2 -28 -2 -40 0 -13 2 -5 4 17 4 22 1 32 -1 23 -4z m85 0 c-7 -2 -21 -2 -30 0
-10 3 -4 5 12 5 17 0 24 -2 18 -5z m1512 -13 c3 -5 0 -8 -7 -5 -7 3 -35 -6
-61 -19 -27 -14 -55 -22 -63 -19 -10 4 -12 0 -8 -11 4 -11 1 -16 -12 -16 -16
0 -17 2 -4 11 12 9 11 10 -7 6 -13 -3 -23 -2 -23 1 0 6 146 57 172 61 4 1 10
-3 13 -9z m-1762 -7 c-13 -2 -23 -8 -23 -13 0 -4 -9 -6 -20 -3 -16 4 -20 0
-20 -23 0 -15 -3 -24 -7 -20 -5 4 -8 13 -8 19 0 7 -11 13 -25 14 -23 2 -23 2
-5 -6 19 -9 19 -10 -2 -10 -13 -1 -23 -6 -23 -11 0 -7 -7 -7 -21 1 -17 9 -20
8 -14 -2 6 -9 2 -11 -16 -6 -18 5 -28 1 -40 -15 -13 -16 -20 -18 -35 -10 -16
9 -14 12 19 26 20 8 63 22 94 31 32 9 69 20 83 25 14 4 39 8 55 8 22 -1 24 -2
8 -5z m444 1 c-3 -3 -12 -4 -19 -1 -8 3 -5 6 6 6 11 1 17 -2 13 -5z m1988 -4
c4 -6 11 -8 16 -5 5 4 9 1 9 -4 0 -15 -27 -14 -34 2 -3 8 -9 6 -20 -7 -19 -24
-21 -40 -3 -29 20 12 38 12 31 0 -16 -28 -37 -45 -49 -41 -13 6 -29 -22 -20
-36 3 -5 -3 -14 -14 -20 -23 -12 -25 -54 -2 -45 11 4 11 3 2 -9 -7 -8 -10 -20
-6 -26 3 -5 -1 -10 -10 -10 -10 0 -13 -5 -9 -12 4 -6 3 -8 -4 -5 -5 4 -9 18
-8 32 2 13 -1 22 -6 19 -10 -6 77 172 94 194 13 15 25 16 33 2z m-1922 -7 c-7
-2 -21 -2 -30 0 -10 3 -4 5 12 5 17 0 24 -2 18 -5z m142 -33 c7 -12 -2 -12
-30 0 -19 8 -19 9 2 9 12 1 25 -3 28 -9z m1049 -5 c-7 -18 -20 -19 -30 -3 -4
7 -3 8 4 4 7 -4 12 -2 12 3 0 6 4 11 10 11 5 0 7 -7 4 -15z m-144 -5 c-8 -5
-22 -9 -30 -9 -10 0 -8 3 5 9 27 12 43 12 25 0z m1321 -17 c-12 -20 -14 -14
-5 12 4 9 9 14 11 11 3 -2 0 -13 -6 -23z m-264 -8 c0 -8 -4 -12 -9 -9 -5 3 -6
10 -3 15 9 13 12 11 12 -6z m-1164 -2 c-7 -2 -19 -2 -25 0 -7 3 -2 5 12 5 14
0 19 -2 13 -5z m768 -50 c-22 -42 -69 -98 -76 -91 -3 2 9 19 27 37 28 28 30
34 19 57 -6 14 -7 23 -2 20 5 -4 12 0 15 6 3 7 3 2 0 -11 -4 -16 -3 -21 5 -17
6 4 11 15 11 25 0 21 13 37 18 22 2 -5 -6 -27 -17 -48z m-2511 37 c-8 -5 -11
-10 -6 -10 5 0 3 -6 -3 -13 -6 -8 -8 -16 -6 -19 3 -3 -9 -6 -27 -6 -63 0 -69
-2 -62 -14 5 -7 3 -8 -6 -3 -7 4 -16 2 -22 -6 -8 -12 -9 -12 -6 0 4 14 122 81
143 81 6 0 3 -5 -5 -10z m1687 4 c-3 -3 -12 -4 -19 -1 -8 3 -5 6 6 6 11 1 17
-2 13 -5z m1461 -29 c-6 -14 -14 -22 -17 -18 -3 4 -10 12 -16 16 -6 5 -3 7 8
3 15 -5 22 5 18 27 -1 5 3 6 8 2 7 -4 6 -14 -1 -30z m-1901 19 c-3 -3 -12 -4
-19 -1 -8 3 -5 6 6 6 11 1 17 -2 13 -5z m400 0 c-3 -3 -12 -4 -19 -1 -8 3 -5
6 6 6 11 1 17 -2 13 -5z m-314 -11 c-7 -2 -21 -2 -30 0 -10 3 -4 5 12 5 17 0
24 -2 18 -5z m227 -3 c-20 -5 -39 -5 -44 1 -6 5 7 9 35 8 l44 -1 -35 -8z
m1130 -1 c0 -5 4 -7 10 -4 6 3 7 -1 4 -9 -3 -9 -10 -16 -14 -16 -12 0 -30 26
-23 33 10 11 23 8 23 -4z m210 -13 c0 -3 -4 -8 -10 -11 -5 -3 -10 -1 -10 4 0
6 5 11 10 11 6 0 10 -2 10 -4z m-605 -28 c5 4 5 1 1 -6 -6 -10 -11 -10 -22 -1
-8 6 -14 14 -14 16 0 3 6 0 13 -6 8 -6 18 -7 22 -3z m-110 -7 c3 -5 2 -12 -3
-15 -5 -3 -9 1 -9 9 0 17 3 19 12 6z m485 3 c0 -8 -19 -13 -24 -6 -3 5 1 9 9
9 8 0 15 -2 15 -3z m-2283 -10 c-3 -3 -12 -4 -19 -1 -8 3 -5 6 6 6 11 1 17 -2
13 -5z m1755 -1 c-6 -2 -9 -10 -6 -15 4 -7 2 -8 -5 -4 -13 9 -5 26 12 25 9 0
8 -2 -1 -6z m932 -82 c-41 -76 -89 -142 -77 -106 3 11 10 25 14 31 5 6 6 14 2
17 -3 4 1 7 9 7 9 0 30 27 49 64 19 36 35 63 37 61 2 -2 -13 -35 -34 -74z
m-997 27 c-3 -7 -5 -2 -5 12 0 14 2 19 5 13 2 -7 2 -19 0 -25z m317 -5 c-4
-34 -3 -35 14 -22 22 17 -17 -20 -46 -43 -12 -10 -24 -13 -27 -8 -3 4 0 10 6
12 8 3 6 10 -5 21 -10 9 -22 15 -27 12 -5 -4 -9 -2 -9 3 0 17 30 22 36 7 4 -8
10 -12 16 -9 5 3 4 11 -2 19 -10 11 -8 13 9 10 13 -2 22 3 26 16 10 31 14 22
9 -18z m-2224 13 c0 -3 -4 -8 -10 -11 -5 -3 -10 -1 -10 4 0 6 5 11 10 11 6 0
10 -2 10 -4z m2417 -15 c0 -11 -5 -17 -11 -14 -6 4 -6 -1 -2 -13 4 -10 4 -15
0 -12 -9 10 -33 -15 -26 -27 3 -5 1 -7 -3 -2 -5 4 -16 0 -26 -9 -14 -13 -15
-19 -6 -29 7 -7 17 -10 22 -7 6 3 7 1 2 -3 -4 -5 -21 -9 -37 -10 -18 -1 -40
-13 -57 -30 -18 -19 -22 -26 -10 -22 9 3 17 2 17 -3 0 -6 -7 -10 -16 -10 -8 0
-13 -4 -9 -9 9 -15 -15 -25 -28 -12 -9 9 -8 11 4 6 10 -4 16 0 16 10 0 18 -2
18 -27 5 -11 -6 -18 -16 -16 -23 1 -6 1 -9 -1 -4 -3 4 -9 7 -14 7 -6 0 -8 -4
-5 -8 2 -4 -4 -9 -15 -9 -12 -1 7 17 48 46 66 47 193 172 193 191 0 6 2 10 4
10 3 0 4 -9 3 -19z m300 4 c0 -8 -4 -12 -9 -9 -5 3 -6 10 -3 15 9 13 12 11 12
-6z m-2675 -19 c4 3 8 1 11 -3 3 -5 -5 -10 -18 -11 -18 -1 -23 3 -22 19 1 18
3 18 13 5 6 -9 13 -13 16 -10z m-468 -1 c-14 -11 -15 -14 -4 -15 21 -1 -30
-39 -52 -40 -10 0 -18 -4 -18 -9 0 -5 -8 -12 -17 -16 -12 -4 -8 4 11 24 18 18
34 27 45 24 9 -4 13 -2 8 2 -8 9 21 45 36 45 6 0 2 -7 -9 -15z m2366 -1 c0 -8
-5 -12 -10 -9 -6 4 -8 11 -5 16 9 14 15 11 15 -7z m35 7 c3 -5 2 -12 -3 -15
-5 -3 -9 1 -9 9 0 17 3 19 12 6z m-2018 -23 c-3 -8 -6 -5 -6 6 -1 11 2 17 5
13 3 -3 4 -12 1 -19z m1687 10 c-3 -4 0 -8 7 -8 7 0 9 -3 6 -6 -4 -4 -13 -2
-20 4 -8 7 -18 8 -22 4 -5 -4 -5 -2 -2 4 3 6 13 11 21 11 8 0 13 -4 10 -9z
m206 -34 c0 -2 -7 -4 -15 -4 -8 0 -15 4 -15 10 0 5 7 7 15 4 8 -4 15 -8 15
-10z m97 0 c-3 -3 -12 -4 -19 -1 -8 3 -5 6 6 6 11 1 17 -2 13 -5z m-2010 -33
c0 -11 -5 -18 -9 -15 -4 3 -5 11 -1 19 7 21 12 19 10 -4z m1559 -4 c1 -9 -1
-19 -6 -22 -5 -3 -7 3 -6 12 2 10 -2 22 -8 26 -7 6 -6 7 3 5 8 -2 15 -12 17
-21z m658 14 c3 -5 -5 -16 -19 -25 -14 -9 -25 -12 -25 -7 0 5 7 12 16 15 8 3
12 10 9 16 -3 5 -2 10 4 10 5 0 12 -4 15 -9z m660 1 c3 -5 -1 -9 -9 -9 -8 0
-12 4 -9 9 3 4 7 8 9 8 2 0 6 -4 9 -8z m-2942 -9 c-6 -3 -10 -9 -7 -13 3 -5
-3 -8 -13 -7 -28 2 -22 22 7 23 14 1 20 -1 13 -3z m2053 -3 c3 -5 1 -10 -4
-10 -6 0 -11 5 -11 10 0 6 2 10 4 10 3 0 8 -4 11 -10z m445 0 c0 -5 -5 -10
-11 -10 -5 0 -7 5 -4 10 3 6 8 10 11 10 2 0 4 -4 4 -10z m-2360 -10 c-8 -5
-19 -10 -25 -10 -5 0 -3 5 5 10 8 5 20 10 25 10 6 0 3 -5 -5 -10z m46 -22 c1
-18 -3 -25 -13 -21 -7 3 -13 9 -13 15 0 5 5 6 10 3 6 -3 10 1 10 10 0 9 -4 13
-10 10 -5 -3 -10 -1 -10 5 0 24 25 2 26 -22z m1594 17 c0 -2 -9 -3 -19 -2 -11
0 -18 5 -15 9 4 6 34 0 34 -7z m324 0 c-4 -8 -11 -12 -16 -9 -6 4 -5 10 3 15
19 12 19 11 13 -6z m546 7 c0 -5 -7 -9 -15 -9 -8 0 -15 4 -15 9 0 4 7 8 15 8
8 0 15 -4 15 -8z m71 -9 c12 -16 12 -17 -2 -6 -9 7 -20 9 -24 5 -5 -4 -5 -1
-1 6 9 16 11 15 27 -5z m-2491 -8 c0 -8 -2 -15 -4 -15 -2 0 -6 7 -10 15 -3 8
-1 15 4 15 6 0 10 -7 10 -15z m1694 -14 c-2 -3 -12 3 -22 13 -16 17 -16 18 5
5 12 -7 20 -15 17 -18z m-2297 -3 c-1 -10 -2 -18 -4 -18 -1 0 -7 8 -12 18 -7
14 -6 19 4 19 7 0 13 -9 12 -19z m2591 8 c13 4 13 2 -3 -11 -11 -9 -29 -21
-40 -26 -18 -9 -19 -9 -2 4 9 8 17 23 18 33 0 10 3 14 5 7 3 -7 13 -10 22 -7z
m-2635 -13 c-3 -7 -8 -13 -12 -13 -4 0 -8 6 -8 13 0 8 6 14 13 14 7 0 10 -6 7
-14z m1877 13 c0 -3 -4 -8 -10 -11 -5 -3 -10 -1 -10 4 0 6 5 11 10 11 6 0 10
-2 10 -4z m504 -11 c3 -8 1 -15 -3 -15 -5 0 -11 7 -15 15 -3 8 -1 15 3 15 5 0
11 -7 15 -15z m-1837 -17 c2 -17 0 -19 -7 -8 -5 8 -6 18 -4 22 8 12 10 10 11
-14z m1960 0 c-3 -8 -6 -5 -6 6 -1 11 2 17 5 13 3 -3 4 -12 1 -19z m598 13 c3
-5 2 -12 -3 -15 -5 -3 -9 1 -9 9 0 17 3 19 12 6z m-3145 -26 c-8 -9 -8 -15 -2
-15 6 0 10 -15 10 -32 -1 -30 -2 -31 -11 -10 -12 25 -30 30 -20 5 5 -12 2 -15
-10 -10 -16 6 -22 -3 -18 -26 1 -5 -3 -6 -8 -3 -5 4 -12 2 -15 -3 -4 -5 -2
-12 3 -15 11 -7 7 -42 -5 -39 -5 1 -16 3 -24 5 -10 2 -14 -4 -13 -17 2 -12 0
-14 -4 -6 -4 10 -9 8 -19 -10 -7 -13 -13 -19 -14 -12 0 10 62 98 79 113 3 3
22 26 41 52 19 25 37 44 39 42 2 -2 -2 -10 -9 -19z m532 -2 c-3 -16 -7 -22
-10 -15 -4 13 4 42 11 42 2 0 2 -12 -1 -27z m-307 7 c3 -6 -1 -7 -9 -4 -18 7
-21 14 -7 14 6 0 13 -4 16 -10z m489 -3 c-3 -8 -11 -14 -19 -14 -21 0 -19 15
3 20 9 3 18 5 19 6 1 0 0 -5 -3 -12z m2696 9 c0 -3 -4 -8 -10 -11 -5 -3 -10
-1 -10 4 0 6 5 11 10 11 6 0 10 -2 10 -4z m-2955 -20 c7 3 15 1 19 -4 8 -13
-33 -8 -44 6 -7 8 -7 9 1 3 6 -5 17 -7 24 -5z m159 0 c-4 -11 0 -13 14 -9 11
2 23 -1 28 -8 5 -9 2 -10 -11 -5 -11 4 -26 0 -39 -11 -12 -10 -18 -14 -14 -9
4 5 2 16 -5 24 -9 13 -9 14 1 8 7 -4 12 -1 12 8 0 9 4 16 10 16 5 0 7 -6 4
-14z m1296 10 c0 -2 -7 -9 -15 -16 -13 -11 -14 -10 -9 4 5 14 24 23 24 12z
m-1083 -12 c-3 -3 -12 -4 -19 -1 -8 3 -5 6 6 6 11 1 17 -2 13 -5z m70 -9 c0
-8 -4 -12 -9 -9 -4 3 -8 0 -8 -7 0 -7 -3 -9 -6 -6 -4 4 -1 13 6 22 15 19 17
19 17 0z m113 5 c0 -5 -2 -10 -4 -10 -3 0 -8 5 -11 10 -3 6 -1 10 4 10 6 0 11
-4 11 -10z m240 -5 c0 -8 -2 -15 -4 -15 -2 0 -6 7 -10 15 -3 8 -1 15 4 15 6 0
10 -7 10 -15z m40 6 c0 -5 -8 -15 -17 -22 -16 -12 -17 -12 -6 2 7 9 10 19 6
22 -3 4 -1 7 5 7 7 0 12 -4 12 -9z m930 -1 c0 -5 -5 -10 -11 -10 -5 0 -7 5 -4
10 3 6 8 10 11 10 2 0 4 -4 4 -10z m30 0 c0 -5 -2 -10 -4 -10 -3 0 -8 5 -11
10 -3 6 -1 10 4 10 6 0 11 -4 11 -10z m305 0 c-3 -5 -1 -10 4 -10 6 0 11 4 11
8 0 4 9 8 20 8 11 0 20 -2 20 -4 0 -12 -265 -119 -283 -114 -4 1 -16 -2 -26
-7 -13 -7 -18 -6 -18 4 0 8 4 12 8 9 4 -2 10 0 14 6 4 6 11 7 17 4 7 -5 9 -1
5 9 -7 17 25 33 43 22 6 -4 18 -1 26 6 11 9 18 9 26 1 7 -7 17 -12 23 -12 5 0
3 5 -5 11 -12 8 -11 9 5 5 25 -7 46 5 49 29 1 10 10 19 19 21 10 1 15 -2 11
-7 -3 -5 -11 -6 -17 -3 -9 5 -9 4 0 -6 8 -9 16 -9 30 -1 10 6 14 11 10 11 -9
0 1 20 9 20 3 0 2 -4 -1 -10z m482 -12 c2 -17 0 -19 -7 -8 -5 8 -6 18 -4 22 8
12 10 10 11 -14z m163 10 c0 -11 -28 -10 -35 1 -3 6 4 9 15 8 11 -1 20 -5 20
-9z m-2907 -17 c3 -14 1 -18 -9 -14 -15 6 -18 16 -7 26 9 10 10 9 16 -12z
m1833 4 c-1 -8 -5 -17 -8 -21 -5 -4 -4 16 1 34 3 9 9 -1 7 -13z m259 -3 c-3
-3 -11 0 -18 7 -9 10 -8 11 6 5 10 -3 15 -9 12 -12z m678 3 c-3 -9 -8 -14 -10
-11 -3 3 -2 9 2 15 9 16 15 13 8 -4z m232 5 c3 -6 -1 -7 -9 -4 -18 7 -21 14
-7 14 6 0 13 -4 16 -10z m73 -20 c-25 -34 -34 -39 -19 -11 6 10 7 22 3 26 -4
5 -2 5 5 1 6 -3 14 -2 18 4 3 5 8 10 11 10 2 0 -5 -13 -18 -30z m-2213 0 c-10
-11 -22 -20 -28 -20 -5 0 1 9 14 20 31 25 37 25 14 0z m-395 -5 c0 -9 -40 -11
-51 -3 -11 8 -10 9 4 4 9 -3 17 -1 17 4 0 5 7 7 15 4 8 -4 15 -7 15 -9z m325
5 c-3 -5 -12 -10 -18 -10 -7 0 -6 4 3 10 19 12 23 12 15 0z m781 -16 c1 -9 0
-13 -4 -10 -3 4 -7 14 -8 22 -1 9 0 13 4 10 3 -4 7 -14 8 -22z m334 1 c0 -12
-29 -3 -34 10 -4 13 -2 14 14 5 11 -6 20 -13 20 -15z m-1630 -6 c0 -6 -4 -7
-10 -4 -5 3 -10 11 -10 16 0 6 5 7 10 4 6 -3 10 -11 10 -16z m1380 11 c0 -5
-5 -10 -11 -10 -5 0 -7 5 -4 10 3 6 8 10 11 10 2 0 4 -4 4 -10z m-1539 -23
c-10 -9 -11 -8 -5 6 3 10 9 15 12 12 3 -3 0 -11 -7 -18z m493 7 c3 -8 2 -12
-4 -9 -6 3 -10 10 -10 16 0 14 7 11 14 -7z m-290 -8 c-3 -8 -13 -17 -22 -21
-13 -5 -13 -2 3 15 21 24 26 25 19 6z m153 -8 c-3 -8 -6 -5 -6 6 -1 11 2 17 5
13 3 -3 4 -12 1 -19z m-480 -10 c-3 -8 -6 -5 -6 6 -1 11 2 17 5 13 3 -3 4 -12
1 -19z m163 12 c0 -5 -8 -10 -17 -10 -15 0 -16 2 -3 10 19 12 20 12 20 0z
m100 -3 c0 -8 -7 -14 -15 -14 -25 0 -17 17 13 26 1 1 2 -5 2 -12z m556 6 c-10
-11 -37 -12 -30 -2 3 5 12 9 21 9 9 0 13 -3 9 -7z m69 -2 c3 -5 2 -12 -3 -15
-5 -3 -9 1 -9 9 0 17 3 19 12 6z m66 -14 c-10 -9 -11 -8 -5 6 3 10 9 15 12 12
3 -3 0 -11 -7 -18z m166 1 c-3 -8 -6 -5 -6 6 -1 11 2 17 5 13 3 -3 4 -12 1
-19z m1764 -1 c-10 -9 -11 -8 -5 6 3 10 9 15 12 12 3 -3 0 -11 -7 -18z m-3041
3 c0 -5 -2 -10 -4 -10 -3 0 -8 5 -11 10 -3 6 -1 10 4 10 6 0 11 -4 11 -10z
m668 -21 c-3 -8 -7 -3 -11 10 -4 17 -3 21 5 13 5 -5 8 -16 6 -23z m1252 21 c0
-5 8 -7 18 -3 19 7 17 4 -13 -17 -11 -8 -17 -10 -13 -6 4 5 3 15 -3 23 -9 9
-8 13 0 13 6 0 11 -4 11 -10z m660 -2 c0 -9 4 -8 10 2 8 12 9 9 6 -10 -2 -14
1 -31 6 -37 7 -9 7 -13 -1 -13 -10 0 -15 12 -13 31 1 3 -12 6 -28 5 -18 -1
-25 -5 -20 -11 6 -7 -8 -11 -38 -12 l-47 -1 55 28 c64 33 70 34 70 18z m128 0
c-3 -12 -36 -48 -45 -48 -6 0 7 21 25 43 18 20 23 22 20 5z m55 5 c-7 -2 -13
-12 -13 -20 0 -9 -3 -14 -6 -10 -10 10 4 37 18 36 10 0 10 -2 1 -6z m197 -5
c0 -4 -4 -8 -9 -8 -6 0 -12 4 -15 8 -3 5 1 9 9 9 8 0 15 -4 15 -9z m204 -48
c-26 -33 -54 -66 -63 -72 -9 -7 1 9 22 35 22 26 40 55 41 65 2 9 8 17 14 17 6
0 14 3 18 8 24 23 9 -1 -32 -53z m-3060 35 c-4 -8 -10 -15 -15 -15 -4 0 -6 7
-3 15 4 8 10 15 15 15 4 0 6 -7 3 -15z m333 -10 c0 -8 -4 -15 -9 -15 -10 0
-11 14 -1 23 9 10 10 9 10 -8z m353 5 c0 -5 -2 -10 -4 -10 -3 0 -8 5 -11 10
-3 6 -1 10 4 10 6 0 11 -4 11 -10z m57 -22 c-3 -7 -5 -2 -5 12 0 14 2 19 5 13
2 -7 2 -19 0 -25z m-487 12 c0 -5 -5 -10 -11 -10 -5 0 -7 5 -4 10 3 6 8 10 11
10 2 0 4 -4 4 -10z m98 -8 c-2 -11 4 -27 12 -37 14 -18 14 -18 -9 -3 -13 9
-31 14 -40 12 -9 -3 -6 1 7 7 12 7 22 18 22 26 0 7 3 13 6 13 3 0 4 -8 2 -18z
m252 -7 c0 -2 -9 -3 -19 -2 -11 0 -18 5 -15 9 4 6 34 0 34 -7z m1425 -5 c-3
-5 -13 -10 -21 -10 -8 0 -12 5 -9 10 3 6 13 10 21 10 8 0 12 -4 9 -10z m-2240
-10 c3 -6 -1 -7 -9 -4 -18 7 -21 14 -7 14 6 0 13 -4 16 -10z m2168 -10 c-13
-13 -107 -30 -94 -17 9 9 28 14 69 16 7 1 10 5 7 11 -3 6 1 7 10 4 9 -4 13
-10 8 -14z m-1506 -12 c-3 -8 -6 -5 -6 6 -1 11 2 17 5 13 3 -3 4 -12 1 -19z
m1879 7 c4 -8 11 -12 16 -9 6 4 2 -5 -7 -20 -20 -31 -30 -35 -15 -6 8 14 8 20
0 20 -22 0 -50 -21 -44 -32 4 -7 3 -8 -4 -4 -6 4 -8 14 -5 22 5 14 3 14 -16 3
-11 -8 -21 -18 -21 -24 0 -5 -4 -4 -8 3 -13 20 -60 -2 -65 -30 -4 -21 -4 -21
-6 4 -1 23 5 28 44 41 25 9 45 14 45 12 0 -3 15 4 33 15 39 24 46 25 53 5z
m41 -7 c-3 -8 -6 -5 -6 6 -1 11 2 17 5 13 3 -3 4 -12 1 -19z m102 -12 c-3 -3
-11 5 -18 17 -13 21 -12 21 5 5 10 -10 16 -20 13 -22z m-2778 7 c13 -16 12
-17 -3 -4 -17 13 -22 21 -14 21 2 0 10 -8 17 -17z m410 0 c13 -16 12 -17 -3
-4 -17 13 -22 21 -14 21 2 0 10 -8 17 -17z m129 11 c0 -8 -19 -13 -24 -6 -3 5
1 9 9 9 8 0 15 -2 15 -3z m63 -14 c3 -11 1 -18 -4 -14 -5 3 -9 12 -9 20 0 20
7 17 13 -6z m197 9 c0 -5 5 -7 12 -3 7 4 8 3 4 -5 -6 -8 -12 -9 -20 -2 -7 6
-17 7 -21 3 -5 -4 -5 -1 -1 6 9 15 26 16 26 1z m480 7 c0 -3 -4 -8 -10 -11 -5
-3 -10 -1 -10 4 0 6 5 11 10 11 6 0 10 -2 10 -4z m867 -11 c0 -17 -13 -20 -21
-6 -4 5 0 12 6 14 7 3 13 6 14 6 0 1 1 -6 1 -14z m582 -19 c-3 -3 -11 5 -18
17 -13 21 -12 21 5 5 10 -10 16 -20 13 -22z m-1559 20 c0 -3 -4 -8 -10 -11 -5
-3 -10 -1 -10 4 0 6 5 11 10 11 6 0 10 -2 10 -4z m820 -6 c0 -5 -2 -10 -4 -10
-3 0 -8 5 -11 10 -3 6 -1 10 4 10 6 0 11 -4 11 -10z m-1275 -18 c-3 -3 -11 0
-18 7 -9 10 -8 11 6 5 10 -3 15 -9 12 -12z m340 8 c3 -5 1 -10 -4 -10 -6 0
-11 5 -11 10 0 6 2 10 4 10 3 0 8 -4 11 -10z m1015 -12 c-25 -4 -61 -10 -80
-13 -27 -5 -32 -4 -23 5 6 7 27 13 46 14 20 0 38 4 41 7 4 3 19 4 34 1 24 -5
22 -7 -18 -14z m-865 3 c3 -5 2 -12 -3 -15 -5 -3 -9 1 -9 9 0 17 3 19 12 6z
m-1285 -5 c0 -3 -4 -8 -10 -11 -5 -3 -10 -1 -10 4 0 6 5 11 10 11 6 0 10 -2
10 -4z m720 -16 c0 -5 -2 -10 -4 -10 -3 0 -8 5 -11 10 -3 6 -1 10 4 10 6 0 11
-4 11 -10z m70 4 c0 -8 -19 -13 -24 -6 -3 5 1 9 9 9 8 0 15 -2 15 -3z m1170
-16 c-13 -5 -30 -6 -37 -4 -7 3 -25 0 -38 -6 -18 -8 -29 -8 -36 -1 -7 7 -5 12
6 17 9 3 13 2 10 -4 -3 -6 -2 -10 4 -10 5 0 13 5 17 11 3 6 19 9 35 5 16 -3
29 -1 29 4 0 5 7 7 17 3 13 -5 12 -8 -7 -15z m-1567 -3 c-3 -9 -8 -14 -10 -11
-3 3 -2 9 2 15 9 16 15 13 8 -4z m-432 -18 c-10 -9 -11 -8 -5 6 3 10 9 15 12
12 3 -3 0 -11 -7 -18z m2512 17 c-7 -3 -9 -13 -6 -22 3 -12 2 -14 -4 -4 -7 9
-17 10 -35 3 -14 -5 -30 -7 -34 -3 -5 4 -2 -2 6 -12 13 -18 13 -19 -1 -14 -9
4 -22 1 -29 -5 -10 -9 -11 -9 -6 1 4 6 2 12 -3 12 -6 0 -11 -4 -11 -9 0 -5
-18 -11 -40 -13 -22 -2 -40 0 -40 4 0 4 -15 8 -32 10 -22 2 -5 8 54 17 48 7
107 19 130 26 41 13 76 19 51 9z m51 -15 c-3 -5 -10 -7 -15 -3 -5 3 -7 10 -3
15 3 5 10 7 15 3 5 -3 7 -10 3 -15z m-1149 2 c3 -5 2 -12 -3 -15 -5 -3 -9 1
-9 9 0 17 3 19 12 6z m1942 -21 c-1 -12 -10 -28 -20 -37 -17 -16 -17 -16 -11
0 3 9 10 17 14 17 5 0 7 9 5 20 -2 11 0 20 5 20 5 0 8 -9 7 -20z m-3363 -15
c-4 -8 -10 -15 -15 -15 -4 0 -6 7 -3 15 4 8 10 15 15 15 4 0 6 -7 3 -15z m780
-7 c-6 -9 -44 -6 -44 3 0 4 11 6 24 5 13 0 22 -4 20 -8z m76 8 c0 -2 -7 -9
-15 -16 -13 -11 -14 -10 -9 4 5 14 24 23 24 12z m1130 -10 c0 -2 -7 -7 -16
-10 -8 -3 -12 -2 -9 4 6 10 25 14 25 6z m100 -6 c0 -5 -2 -10 -4 -10 -3 0 -8
5 -11 10 -3 6 -1 10 4 10 6 0 11 -4 11 -10z m113 3 c-26 -5 -29 -13 -10 -32 6
-8 0 -6 -15 4 -16 9 -28 14 -28 11 0 -4 -6 -4 -12 0 -15 9 23 22 62 22 23 -1
23 -1 3 -5z m-1618 -13 c-3 -5 -12 -10 -18 -10 -7 0 -6 4 3 10 19 12 23 12 15
0z m2148 -8 c14 -15 14 -19 3 -19 -8 0 -17 9 -19 19 -3 10 -4 18 -3 18 2 0 10
-8 19 -18z m-1980 -15 c7 4 6 0 -2 -10 -15 -18 -26 -23 -16 -7 3 6 -1 13 -9
16 -9 3 -13 11 -10 16 4 6 10 4 16 -6 5 -9 14 -13 21 -9z m48 6 c13 -16 12
-17 -3 -4 -17 13 -22 21 -14 21 2 0 10 -8 17 -17z m1422 2 c-3 -9 -8 -14 -10
-11 -3 3 -2 9 2 15 9 16 15 13 8 -4z m347 12 c0 -2 -10 -12 -22 -23 l-23 -19
19 23 c18 21 26 27 26 19z m-2287 -20 c3 -8 1 -20 -5 -28 -8 -11 -9 -10 -4 4
3 9 1 17 -5 17 -6 0 -7 5 -4 10 8 13 12 13 18 -3z m2324 -9 c-3 -8 -6 -5 -6 6
-1 11 2 17 5 13 3 -3 4 -12 1 -19z m-461 -8 c0 -11 -6 -20 -13 -20 -9 0 -12
-9 -9 -26 5 -26 5 -26 -17 -8 -12 10 -24 21 -27 23 -3 2 3 1 12 -2 12 -4 20 2
30 24 15 34 24 37 24 9z m674 5 c-7 -8 -17 -15 -23 -15 -6 0 -2 7 9 15 25 19
30 19 14 0z m-1392 -20 c-3 -3 -9 2 -12 12 -6 14 -5 15 5 6 7 -7 10 -15 7 -18z
m-1015 0 c-3 -9 -8 -14 -10 -11 -3 3 -2 9 2 15 9 16 15 13 8 -4z m237 11 c0
-2 -7 -7 -16 -10 -8 -3 -12 -2 -9 4 6 10 25 14 25 6z m1350 0 c0 -3 -4 -8 -10
-11 -5 -3 -10 -1 -10 4 0 6 5 11 10 11 6 0 10 -2 10 -4z m1045 -6 c-3 -5 -14
-10 -23 -9 -14 0 -13 2 3 9 27 11 27 11 20 0z m-2485 -19 c7 -14 7 -22 -2 -27
-6 -4 -8 -3 -4 4 3 6 2 13 -4 17 -10 6 -14 25 -5 25 2 0 9 -9 15 -19z m337 13
c-3 -3 -12 -4 -19 -1 -8 3 -5 6 6 6 11 1 17 -2 13 -5z m1277 -10 c3 -8 2 -12
-4 -9 -6 3 -10 10 -10 16 0 14 7 11 14 -7z m-2219 -14 c-14 -15 -15 -20 -4
-20 10 -1 10 -3 -3 -10 -10 -6 -14 -18 -11 -30 4 -14 0 -20 -12 -20 -12 0 -16
-6 -12 -20 3 -11 1 -18 -4 -14 -5 3 -9 0 -9 -5 0 -6 5 -11 10 -11 6 0 10 -4
10 -10 0 -5 -9 -10 -19 -10 -20 0 -20 1 -2 53 25 72 49 117 63 117 6 0 3 -9
-7 -20z m866 -20 c6 0 7 5 3 12 -4 7 -3 8 5 4 16 -10 4 -26 -20 -26 -11 0 -17
5 -14 10 3 6 0 10 -7 10 -9 0 -9 3 2 10 11 7 16 5 18 -5 2 -8 8 -15 13 -15z
m2109 2 c3 -2 -6 -1 -19 3 -18 6 -22 4 -16 -6 5 -8 4 -10 0 -6 -5 4 -10 14
-11 22 -2 12 2 13 19 4 12 -7 24 -14 27 -17z m-1646 2 c3 -8 2 -12 -4 -9 -6 3
-10 10 -10 16 0 14 7 11 14 -7z m911 4 c5 4 5 1 1 -6 -5 -9 -12 -9 -27 -2 -10
6 -19 13 -19 16 0 2 8 0 19 -5 10 -6 22 -7 26 -3z m151 -15 c-4 -4 -12 -1 -19
7 -9 10 -9 11 1 6 7 -4 12 -2 13 6 0 11 2 11 6 0 3 -7 2 -16 -1 -19z m90 1 c1
-9 0 -13 -4 -10 -3 4 -7 14 -8 22 -1 9 0 13 4 10 3 -4 7 -14 8 -22z m289 16
c16 -7 14 -8 -12 -7 -17 1 -29 5 -26 10 5 9 12 8 38 -3z m-1965 -10 c0 -5 -5
-10 -11 -10 -5 0 -7 5 -4 10 3 6 8 10 11 10 2 0 4 -4 4 -10z m217 4 c-3 -3
-12 -4 -19 -1 -8 3 -5 6 6 6 11 1 17 -2 13 -5z m32 -7 c8 -10 7 -14 -2 -14 -8
0 -14 6 -14 14 0 7 1 13 2 13 2 0 8 -6 14 -13z m1038 -3 c-3 -3 -12 -4 -19 -1
-8 3 -5 6 6 6 11 1 17 -2 13 -5z m-1533 -19 c3 -9 0 -15 -9 -15 -9 0 -12 6 -9
15 4 8 7 15 9 15 2 0 5 -7 9 -15z m275 -13 c-5 -2 -6 -8 -3 -14 4 -6 -2 -5
-15 1 -24 13 -28 23 -6 15 11 -5 13 -2 8 12 -6 16 -5 17 9 4 9 -8 12 -17 7
-18z m1925 -1 c-4 -3 -9 0 -11 7 -3 6 -10 9 -15 6 -7 -4 -8 -2 -4 5 6 9 11 9
22 0 8 -6 12 -15 8 -18z m80 8 c-8 -14 -21 -11 -21 5 0 8 6 12 14 9 7 -3 10
-9 7 -14z m-2584 -11 c0 -6 -6 -5 -15 2 -8 7 -15 14 -15 16 0 2 7 1 15 -2 8
-4 15 -11 15 -16z m418 11 c-5 -10 24 -39 32 -34 5 3 11 1 14 -4 4 -5 2 -12
-4 -16 -10 -6 -41 24 -39 39 0 5 -5 13 -13 18 -11 8 -11 9 0 6 8 -2 12 -6 10
-9z m213 -6 c12 -16 12 -17 -2 -6 -9 7 -20 9 -24 5 -5 -4 -5 -1 -1 6 9 16 11
15 27 -5z m139 -4 c0 -5 -8 -9 -17 -8 -11 0 -13 3 -5 6 6 2 9 10 6 15 -4 7 -2
8 4 4 7 -4 12 -11 12 -17z m385 11 c-3 -5 -12 -10 -18 -10 -7 0 -6 4 3 10 19
12 23 12 15 0z m1105 0 c0 -5 -2 -10 -4 -10 -3 0 -8 5 -11 10 -3 6 -1 10 4 10
6 0 11 -4 11 -10z m156 -2 c4 -7 3 -8 -4 -4 -7 4 -12 2 -12 -4 0 -6 -5 -8 -11
-4 -8 4 -7 9 2 15 18 11 17 11 25 -3z m-2488 -11 c-1 -2 3 -11 11 -20 9 -11
10 -17 2 -17 -6 0 -11 3 -12 8 0 4 -2 15 -4 25 -2 11 -1 17 2 14 2 -3 3 -7 1
-10z m547 3 c3 -6 -1 -7 -9 -4 -18 7 -21 14 -7 14 6 0 13 -4 16 -10z m255 -4
c0 -2 -7 -7 -16 -10 -8 -3 -12 -2 -9 4 6 10 25 14 25 6z m1367 -2 c-3 -3 -12
-4 -19 -1 -8 3 -5 6 6 6 11 1 17 -2 13 -5z m-1481 -29 c1 -8 -2 -15 -6 -15 -5
0 -8 9 -7 20 1 21 10 18 13 -5z m645 12 c-6 -8 -7 -18 -3 -23 4 -4 0 -3 -9 4
-9 6 -20 8 -24 4 -5 -4 -5 -1 -1 6 4 7 11 10 16 7 5 -3 11 -1 15 5 3 5 9 10
12 10 3 0 0 -6 -6 -13z m1209 -2 c0 -12 -19 -12 -23 0 -4 9 -1 12 9 8 7 -3 14
-7 14 -8z m-2593 -17 c-3 -8 -6 -5 -6 6 -1 11 2 17 5 13 3 -3 4 -12 1 -19z
m170 7 c0 -8 -4 -15 -9 -15 -4 0 -8 7 -8 15 0 8 4 15 8 15 5 0 9 -7 9 -15z
m718 5 c-3 -5 -12 -10 -18 -10 -7 0 -6 4 3 10 19 12 23 12 15 0z m299 -15
c-18 -27 -25 -32 -21 -13 2 11 26 37 35 38 1 0 -5 -11 -14 -25z m375 11 c8
-10 8 -16 -1 -24 -10 -8 -13 -4 -13 14 0 28 -1 28 14 10z m278 -8 c-3 -8 -6
-5 -6 6 -1 11 2 17 5 13 3 -3 4 -12 1 -19z m323 12 c-12 -8 -12 -10 -1 -10 8
0 12 -3 8 -6 -9 -9 -28 6 -22 17 4 5 12 9 18 9 7 0 6 -4 -3 -10z m154 -6 c3
-8 2 -12 -4 -9 -6 3 -10 10 -10 16 0 14 7 11 14 -7z m81 -2 c-3 -3 -11 0 -18
7 -9 10 -8 11 6 5 10 -3 15 -9 12 -12z m244 -4 c-5 -10 -12 -18 -15 -18 -3 0
-2 5 2 11 3 6 0 15 -7 20 -10 6 -8 8 8 6 17 -1 20 -5 12 -19z m150 9 c8 -10 7
-14 -2 -14 -8 0 -14 6 -14 14 0 7 1 13 2 13 2 0 8 -6 14 -13z m-2279 -11 c-6
-9 -19 -12 -28 -8 -17 6 -14 7 37 21 2 1 -2 -5 -9 -13z m140 10 c0 -11 -19
-15 -25 -6 -3 5 1 10 9 10 9 0 16 -2 16 -4z m2410 1 c0 -2 -10 -12 -22 -23
l-23 -19 19 23 c18 21 26 27 26 19z m-3183 -13 c-3 -3 -12 -4 -19 -1 -8 3 -5
6 6 6 11 1 17 -2 13 -5z m228 -4 c3 -5 1 -10 -4 -10 -6 0 -11 5 -11 10 0 6 2
10 4 10 3 0 8 -4 11 -10z m870 -8 c-3 -3 -11 0 -18 7 -9 10 -8 11 6 5 10 -3
15 -9 12 -12z m250 9 c-3 -5 2 -16 10 -25 8 -8 11 -17 7 -20 -11 -6 -33 39
-25 48 10 9 15 7 8 -3z m-798 -16 c0 -8 -4 -12 -9 -9 -5 3 -6 10 -3 15 9 13
12 11 12 -6z m40 -1 c-3 -3 -12 -4 -19 -1 -8 3 -5 6 6 6 11 1 17 -2 13 -5z
m123 -14 c-12 -23 -16 -24 -26 -8 -4 6 -3 8 3 5 6 -4 13 0 17 8 3 8 8 15 11
15 3 0 1 -9 -5 -20z m110 10 c0 -5 -5 -10 -11 -10 -5 0 -7 5 -4 10 3 6 8 10
11 10 2 0 4 -4 4 -10z m53 -7 c-4 -9 -10 -10 -24 -2 -25 13 -24 17 5 15 14 0
22 -6 19 -13z m37 7 c0 -5 -2 -10 -4 -10 -3 0 -8 5 -11 10 -3 6 -1 10 4 10 6
0 11 -4 11 -10z m1145 0 c3 -5 1 -10 -4 -10 -6 0 -11 5 -11 10 0 6 2 10 4 10
3 0 8 -4 11 -10z m369 -5 c-4 -8 -8 -15 -10 -15 -2 0 -4 7 -4 15 0 8 4 15 10
15 5 0 7 -7 4 -15z m-1374 -5 c0 -5 -5 -10 -11 -10 -5 0 -7 5 -4 10 3 6 8 10
11 10 2 0 4 -4 4 -10z m1907 4 c-3 -3 -12 -4 -19 -1 -8 3 -5 6 6 6 11 1 17 -2
13 -5z m135 -25 c-4 -4 -32 -26 -62 -48 -53 -40 -78 -52 -65 -31 3 6 10 10 16
10 17 0 99 68 86 73 -6 3 -2 4 10 4 13 -1 19 -4 15 -8z m-3185 -35 c-6 -20
-13 -32 -14 -27 -4 11 14 63 21 63 2 0 -1 -16 -7 -36z m853 16 c-6 -11 -13
-20 -16 -20 -2 0 0 9 6 20 6 11 13 20 16 20 2 0 0 -9 -6 -20z m180 5 c0 -2 -6
-5 -13 -8 -8 -3 -14 1 -14 8 0 7 6 11 14 8 7 -3 13 -6 13 -8z m344 7 c3 -5 -1
-9 -9 -9 -8 0 -12 4 -9 9 3 4 7 8 9 8 2 0 6 -4 9 -8z m121 -1 c3 -5 1 -12 -5
-16 -5 -3 -10 1 -10 9 0 18 6 21 15 7z m275 -7 c0 -8 -5 -12 -10 -9 -6 4 -8
11 -5 16 9 14 15 11 15 -7z m197 -6 c-3 -8 -6 -5 -6 6 -1 11 2 17 5 13 3 -3 4
-12 1 -19z m378 12 c-3 -5 -12 -10 -18 -10 -7 0 -6 4 3 10 19 12 23 12 15 0z
m502 -5 c0 -11 -4 -12 -14 -4 -7 6 -13 13 -13 15 0 2 6 4 13 4 8 0 14 -7 14
-15z m-2529 -7 c-2 -7 3 -12 10 -10 6 1 12 -2 12 -8 0 -5 -2 -10 -4 -10 -2 0
-12 -3 -22 -7 -13 -5 -16 -3 -11 10 4 10 1 17 -6 17 -8 0 -6 4 3 10 19 13 20
12 18 -2z m57 -6 c-3 -3 -11 0 -18 7 -9 10 -8 11 6 5 10 -3 15 -9 12 -12z m35
14 c0 -3 -4 -8 -10 -11 -5 -3 -10 -1 -10 4 0 6 5 11 10 11 6 0 10 -2 10 -4z
m396 -8 c4 -7 3 -8 -4 -4 -7 4 -12 3 -12 -3 0 -6 -7 -8 -15 -5 -8 4 -15 10
-15 15 0 13 38 11 46 -3z m145 -5 c13 -15 12 -15 -8 -4 -24 12 -29 21 -14 21
5 0 15 -7 22 -17z m156 -5 c-3 -8 -6 -5 -6 6 -1 11 2 17 5 13 3 -3 4 -12 1
-19z m314 4 c-7 -2 -18 1 -23 6 -8 8 -4 9 13 5 13 -4 18 -8 10 -11z m459 8 c0
-5 -5 -10 -11 -10 -5 0 -7 5 -4 10 3 6 8 10 11 10 2 0 4 -4 4 -10z m180 6 c0
-3 -4 -8 -10 -11 -5 -3 -10 -1 -10 4 0 6 5 11 10 11 6 0 10 -2 10 -4z m177
-11 c0 -8 -4 -12 -9 -9 -5 3 -6 10 -3 15 9 13 12 11 12 -6z m468 5 c3 -6 -1
-7 -9 -4 -18 7 -21 14 -7 14 6 0 13 -4 16 -10z m-2645 -4 c0 -3 -4 -8 -10 -11
-5 -3 -10 -1 -10 4 0 6 5 11 10 11 6 0 10 -2 10 -4z m124 -11 c-4 -8 -11 -15
-16 -15 -6 0 -5 6 2 15 7 8 14 15 16 15 2 0 1 -7 -2 -15z m406 0 c0 -8 -2 -15
-4 -15 -2 0 -6 7 -10 15 -3 8 -1 15 4 15 6 0 10 -7 10 -15z m2288 -10 c-3 -3
-9 2 -12 12 -6 14 -5 15 5 6 7 -7 10 -15 7 -18z m-2233 5 c3 -5 1 -10 -4 -10
-6 0 -11 5 -11 10 0 6 2 10 4 10 3 0 8 -4 11 -10z m339 1 c3 -5 -1 -14 -8 -20
-12 -10 -13 -8 -9 8 6 23 9 25 17 12z m86 -1 c0 -5 -2 -10 -4 -10 -3 0 -8 5
-11 10 -3 6 -1 10 4 10 6 0 11 -4 11 -10z m205 0 c-3 -5 -11 -10 -16 -10 -6 0
-7 5 -4 10 3 6 11 10 16 10 6 0 7 -4 4 -10z m1225 6 c0 -2 -7 -7 -16 -10 -8
-3 -12 -2 -9 4 6 10 25 14 25 6z m70 -11 c-7 -8 -17 -15 -23 -15 -6 0 -2 7 9
15 25 19 30 19 14 0z m-2283 -10 c0 -8 -4 -12 -9 -9 -4 3 -8 9 -8 15 0 5 4 9
8 9 5 0 9 -7 9 -15z m133 10 c0 -2 -6 -8 -13 -14 -10 -8 -14 -7 -14 2 0 8 6
14 14 14 7 0 13 -1 13 -2z m620 -12 c0 -10 -4 -14 -8 -8 -4 6 -11 13 -16 18
-5 4 -2 7 7 7 10 0 17 -8 17 -17z m1370 13 c0 -2 -6 -9 -13 -15 -10 -8 -14 -7
-14 4 0 8 6 15 14 15 7 0 13 -2 13 -4z m-1478 -31 c-2 -14 -8 -25 -13 -25 -12
0 -11 7 1 31 14 26 18 24 12 -6z m1679 -2 c-12 -20 -14 -14 -5 12 4 9 9 14 11
11 3 -2 0 -13 -6 -23z m-1834 3 c0 -8 -6 -12 -15 -9 -11 5 -11 7 0 14 7 5 13
9 14 9 0 0 1 -6 1 -14z m-410 -18 c-3 -8 -6 -5 -6 6 -1 11 2 17 5 13 3 -3 4
-12 1 -19z m98 4 c6 -4 11 -16 13 -27 l2 -20 -11 20 c-7 11 -17 23 -23 27 -7
5 -7 8 -1 8 6 0 15 -4 20 -8z m382 -7 c0 -8 -4 -12 -9 -9 -5 3 -6 10 -3 15 9
13 12 11 12 -6z m203 0 c0 -2 -6 -5 -13 -8 -8 -3 -14 1 -14 8 0 7 6 11 14 8 7
-3 13 -6 13 -8z m1077 -7 c-3 -8 -6 -5 -6 6 -1 11 2 17 5 13 3 -3 4 -12 1 -19z
m410 8 c0 -8 -6 -12 -15 -9 -11 5 -11 7 0 14 7 5 13 9 14 9 0 0 1 -6 1 -14z
m-2352 -19 c-6 -15 -28 -17 -41 -4 -4 4 2 7 14 7 12 0 22 5 22 12 0 6 2 9 5 6
3 -3 3 -12 0 -21z m818 2 c-8 -8 -13 -7 -18 2 -5 8 -4 10 3 5 7 -4 12 -2 12 5
0 7 3 9 7 6 4 -4 2 -12 -4 -18z m407 17 c0 -3 -4 -8 -10 -11 -5 -3 -10 -1 -10
4 0 6 5 11 10 11 6 0 10 -2 10 -4z m195 -6 c-3 -5 -11 -10 -16 -10 -6 0 -7 5
-4 10 3 6 11 10 16 10 6 0 7 -4 4 -10z m139 -2 c-3 -4 -11 -5 -19 -1 -21 7
-19 12 4 10 11 0 18 -5 15 -9z m-1189 -7 c3 -5 2 -12 -3 -15 -5 -3 -9 1 -9 9
0 17 3 19 12 6z m403 -16 c-3 -3 -9 2 -12 12 -6 14 -5 15 5 6 7 -7 10 -15 7
-18z m-949 -7 c-5 -10 -11 -18 -12 -18 -2 0 -3 8 -4 18 -1 10 5 19 12 19 10 0
11 -5 4 -19z m395 -19 c-2 -4 3 -12 11 -19 11 -9 12 -16 5 -25 -8 -9 -8 -15 0
-20 19 -12 10 -25 -18 -25 -16 0 -50 -6 -75 -14 -26 -8 -47 -13 -47 -11 0 4
-122 -39 -138 -49 -26 -16 -19 0 14 30 19 17 35 26 38 20 2 -6 5 -1 5 12 1 24
15 29 27 10 4 -7 3 -8 -4 -4 -8 5 -12 -1 -11 -16 0 -13 3 -17 6 -10 2 6 9 9
15 6 5 -3 12 3 15 15 3 12 13 21 25 21 10 0 16 -4 13 -10 -3 -5 -2 -10 3 -10
5 0 14 10 21 23 8 14 10 16 6 3 -5 -17 -1 -18 32 -12 21 3 47 6 58 6 20 1 20
1 1 15 -17 13 -18 15 -2 21 13 5 14 9 4 21 -7 8 -13 27 -15 42 -2 22 -1 23 6
6 5 -11 7 -23 5 -26z m496 31 c0 -5 -8 -10 -17 -10 -15 0 -16 2 -3 10 19 12
20 12 20 0z m595 0 c3 -5 1 -10 -4 -10 -6 0 -11 5 -11 10 0 6 2 10 4 10 3 0 8
-4 11 -10z m-195 -10 c0 -5 -2 -10 -4 -10 -3 0 -8 5 -11 10 -3 6 -1 10 4 10 6
0 11 -4 11 -10z m295 0 c3 -6 -1 -7 -9 -4 -18 7 -21 14 -7 14 6 0 13 -4 16
-10z m565 -1 c0 -5 4 -8 9 -4 5 3 12 1 15 -4 7 -10 -20 -9 -30 2 -12 12 -26 8
-18 -5 4 -7 3 -8 -5 -4 -6 4 -9 12 -6 17 8 12 35 11 35 -2z m237 -11 c-3 -8
-6 -5 -6 6 -1 11 2 17 5 13 3 -3 4 -12 1 -19z m-2120 6 c-3 -3 -12 -4 -19 -1
-8 3 -5 6 6 6 11 1 17 -2 13 -5z m98 -15 c-4 -5 -12 -9 -18 -8 -9 0 -8 2 1 6
6 2 9 10 6 15 -4 7 -2 8 5 4 6 -4 9 -12 6 -17z m1157 -1 c-7 -7 -12 -8 -12 -2
0 6 3 14 7 17 3 4 9 5 12 2 2 -3 -1 -11 -7 -17z m-1568 -25 c-3 -23 0 -39 8
-44 8 -5 5 -8 -9 -6 -23 1 -23 7 -6 70 8 30 12 19 7 -20z m326 22 c-7 -8 -17
-15 -23 -15 -6 0 -2 7 9 15 25 19 30 19 14 0z m2670 10 c0 -8 -62 -37 -68 -31
-3 3 1 6 9 6 12 0 11 2 -1 11 -12 9 -11 10 6 6 12 -2 28 -1 35 4 16 10 19 11
19 4z m-96 -20 c-15 -11 -16 -17 -6 -23 16 -11 -28 -33 -61 -31 -17 1 -18 2
-4 6 9 2 17 9 17 14 0 5 5 9 11 9 5 0 7 -4 4 -10 -3 -6 1 -7 10 -3 13 5 14 7
3 14 -10 6 -9 11 7 23 11 9 24 16 29 16 6 0 1 -7 -10 -15z m-2720 -11 c3 -8 2
-12 -4 -9 -6 3 -10 10 -10 16 0 14 7 11 14 -7z m337 1 c11 6 11 5 2 -5 -12
-14 -33 -6 -33 13 0 8 3 7 9 -2 5 -8 14 -10 22 -6z m609 5 c0 -5 -5 -10 -11
-10 -5 0 -7 5 -4 10 3 6 8 10 11 10 2 0 4 -4 4 -10z m1113 -5 c-3 -9 -8 -14
-10 -11 -3 3 -2 9 2 15 9 16 15 13 8 -4z m-1957 -13 c1 -7 0 -8 -3 -2 -2 5 -9
8 -14 4 -5 -3 -9 0 -9 6 0 15 23 7 26 -8z m564 8 c0 -5 -8 -10 -17 -10 -15 0
-16 2 -3 10 19 12 20 12 20 0z m-140 -9 c0 -10 -13 -15 -67 -26 -26 -5 -33 -3
-33 9 0 9 5 16 11 16 5 0 7 -4 4 -10 -7 -12 55 -2 70 11 12 11 15 11 15 0z
m100 -14 c42 -3 41 -4 -12 -5 -49 -2 -56 0 -51 14 3 9 8 11 12 6 4 -6 27 -12
51 -15z m195 13 c3 -5 1 -10 -4 -10 -6 0 -11 5 -11 10 0 6 2 10 4 10 3 0 8 -4
11 -10z m1022 4 c-3 -3 -12 -4 -19 -1 -8 3 -5 6 6 6 11 1 17 -2 13 -5z m-1809
-18 c-10 -7 -14 -17 -10 -21 4 -5 1 -5 -7 0 -12 7 -11 10 4 22 24 17 36 17 13
-1z m352 -1 c5 3 10 1 10 -4 0 -6 -10 -11 -23 -11 -14 0 -24 6 -24 15 0 11 4
12 13 4 7 -6 18 -8 24 -4z m425 -5 c22 0 47 -5 55 -11 11 -8 5 -9 -25 -5 -22
3 -52 6 -67 6 -20 0 -28 5 -28 17 0 13 3 14 12 5 7 -7 30 -12 53 -12z m1310 0
c3 -5 1 -10 -4 -10 -6 0 -11 5 -11 10 0 6 2 10 4 10 3 0 8 -4 11 -10z m-1175
-23 c10 -4 8 -6 -7 -6 -16 -1 -23 5 -23 17 0 10 3 13 8 6 4 -6 14 -14 22 -17z
m325 14 c3 -5 2 -12 -3 -15 -5 -3 -9 1 -9 9 0 17 3 19 12 6z m785 5 c0 -2 -7
-7 -16 -10 -8 -3 -12 -2 -9 4 6 10 25 14 25 6z m-1723 -12 c-3 -3 -12 -4 -19
-1 -8 3 -5 6 6 6 11 1 17 -2 13 -5z m573 -4 c0 -5 -2 -10 -4 -10 -3 0 -8 5
-11 10 -3 6 -1 10 4 10 6 0 11 -4 11 -10z m100 -10 c13 -9 13 -10 0 -10 -8 0
-22 5 -30 10 -13 9 -13 10 0 10 8 0 22 -5 30 -10z m64 -2 c-5 -9 -2 -9 9 1 11
9 17 10 17 2 0 -6 3 -10 8 -9 4 0 18 -4 32 -11 22 -10 18 -10 -25 -5 -27 3
-51 10 -53 15 -2 5 -8 9 -13 9 -6 0 -7 -5 -3 -12 4 -7 3 -8 -4 -4 -20 12 -13
26 14 26 17 0 23 -4 18 -12z m1392 -8 c0 -12 -4 -16 -9 -11 -5 5 -6 14 -3 20
10 15 12 14 12 -9z m141 3 c-2 -2 -18 -8 -35 -12 -22 -7 -32 -6 -36 2 -2 7 -5
5 -5 -4 -1 -10 -19 -22 -48 -31 -50 -16 -67 -10 -55 21 6 14 7 13 10 -2 3 -15
9 -17 30 -12 15 4 36 15 47 26 12 11 30 17 43 14 12 -2 22 0 22 5 0 5 7 7 15
3 9 -3 14 -7 12 -10z m-1347 -2 c3 -1 -2 -6 -10 -11 -9 -6 -10 -10 -3 -10 6 0
19 -3 29 -7 13 -5 15 -3 10 8 -5 9 -3 8 6 -2 7 -9 20 -19 28 -22 8 -4 -5 -5
-30 -1 -25 3 -61 8 -80 10 -18 3 -36 7 -40 11 -3 3 10 3 29 -1 29 -5 33 -4 28
13 -3 13 0 18 12 16 9 -2 18 -4 21 -4z m170 -11 c0 -5 -5 -10 -11 -10 -5 0 -7
5 -4 10 3 6 8 10 11 10 2 0 4 -4 4 -10z m-1633 -32 c-3 -8 -6 -5 -6 6 -1 11 2
17 5 13 3 -3 4 -12 1 -19z m1602 -2 c9 -10 8 -15 -3 -19 -10 -4 -14 0 -13 14
2 23 1 23 16 5z m-34 -14 c-3 -3 -11 0 -18 7 -9 10 -8 11 6 5 10 -3 15 -9 12
-12z m-1445 -11 c0 -6 -5 -13 -12 -17 -6 -4 -8 -3 -4 4 3 6 -2 13 -11 15 -14
4 -13 5 5 6 12 0 22 -3 22 -8z m45 -10 c-2 -5 -14 -11 -26 -14 -20 -5 -20 -5
-4 13 17 18 41 18 30 1z m1515 7 c0 -9 4 -8 10 2 6 9 10 10 10 3 0 -6 8 -14
18 -16 11 -3 9 -5 -8 -6 -14 0 -34 6 -44 14 -17 13 -18 15 -3 15 9 0 17 -6 17
-12z m89 -8 c-8 -6 -4 -10 12 -13 18 -4 17 -4 -7 -4 -24 1 -30 5 -27 18 3 11
11 15 20 12 11 -4 12 -8 2 -13z m558 -7 c-3 -38 -17 -41 -181 -42 -196 -1
-357 21 -333 46 5 4 12 1 17 -6 4 -8 17 -12 29 -8 12 3 24 1 27 -4 9 -14 46
-11 38 4 -6 10 -4 10 7 0 7 -7 22 -13 34 -13 12 0 27 6 34 13 10 10 11 9 6 -4
-5 -14 1 -17 44 -15 28 0 51 4 51 8 0 3 9 4 20 1 11 -3 28 1 38 8 15 13 16 12
3 -3 -12 -17 -10 -18 38 -16 28 2 51 5 51 9 0 3 14 4 30 1 29 -4 37 6 31 41 0
4 3 7 8 7 6 0 9 -12 8 -27z m46 20 c-7 -2 -19 -2 -25 0 -7 3 -2 5 12 5 14 0
19 -2 13 -5z m85 -6 c13 18 17 6 4 -13 -9 -15 -85 -28 -112 -19 -28 9 -25 20
8 22 23 1 24 1 7 -7 -18 -8 -17 -9 7 -9 21 -1 26 3 23 18 -3 18 -1 18 23 5 24
-12 28 -12 40 3z m107 3 c-3 -5 -11 -10 -16 -10 -6 0 -7 5 -4 10 3 6 11 10 16
10 6 0 7 -4 4 -10z m-2575 -67 c-5 -19 -12 -38 -16 -41 -4 -4 -4 1 -1 11 4 10
7 35 7 55 0 25 3 32 9 23 5 -7 5 -29 1 -48z m120 32 c0 -2 -9 -9 -19 -15 -14
-7 -22 -7 -27 2 -4 7 -3 8 4 4 7 -4 12 -2 12 3 0 6 7 11 15 11 8 0 15 -2 15
-5z m-94 -61 c-21 -20 -28 -17 -14 5 7 11 16 17 20 15 5 -3 2 -12 -6 -20z"/>
<path d="M6680 5121 c0 -5 5 -13 10 -16 6 -3 10 -2 10 4 0 5 -4 13 -10 16 -5
3 -10 2 -10 -4z"/>
<path d="M6376 4939 c2 -4 0 -10 -6 -14 -14 -9 -13 -28 2 -23 18 6 29 45 13
45 -8 0 -12 -4 -9 -8z"/>
<path d="M3496 4672 c-3 -5 1 -9 9 -9 8 0 12 4 9 9 -3 4 -7 8 -9 8 -2 0 -6 -4
-9 -8z"/>
<path d="M5985 4700 c-3 -5 -1 -10 4 -10 6 0 11 5 11 10 0 6 -2 10 -4 10 -3 0
-8 -4 -11 -10z"/>
<path d="M5930 4690 c0 -14 15 -19 29 -11 9 6 7 10 -8 14 -12 3 -21 1 -21 -3z"/>
<path d="M6125 4610 c-3 -6 1 -7 9 -4 18 7 21 14 7 14 -6 0 -13 -4 -16 -10z"/>
<path d="M5733 4493 c9 -2 25 -2 35 0 9 3 1 5 -18 5 -19 0 -27 -2 -17 -5z"/>
<path d="M4344 3486 c-52 -23 -79 -71 -81 -146 -1 -36 -2 -68 -3 -72 0 -5 -11
-8 -26 -8 -24 0 -25 -2 -22 -52 l3 -53 144 -3 c82 -1 149 2 154 7 5 5 7 29 3
54 l-7 45 -55 4 c-66 6 -79 16 -79 68 0 51 14 63 77 70 51 5 53 6 61 43 5 21
6 41 3 45 -14 13 -141 12 -172 -2z"/>
<path d="M2615 2793 c0 -384 -3 -517 -13 -544 -19 -53 -82 -109 -139 -124
-108 -28 -216 17 -259 108 -35 76 -33 129 12 284 5 20 -1 24 -68 43 -40 12
-79 23 -86 25 -16 6 -55 -78 -71 -153 -39 -183 33 -374 172 -455 75 -44 149
-60 261 -55 116 5 180 29 259 99 49 42 117 163 117 205 0 29 11 30 47 7 24
-16 53 -18 223 -18 193 0 197 0 247 27 l52 27 72 -37 c70 -36 74 -37 183 -37
101 0 115 2 162 27 188 99 221 380 62 523 -61 56 -118 77 -207 78 -100 1 -166
-22 -231 -80 -62 -55 -98 -115 -121 -201 -37 -132 -59 -146 -234 -150 -147 -4
-189 7 -229 61 -20 28 -21 41 -24 435 l-2 407 -93 3 -92 3 0 -508z m1042 -163
c21 0 74 -52 89 -89 43 -103 -47 -190 -167 -161 -67 16 -99 51 -99 107 0 53
20 94 57 121 33 23 61 32 88 26 11 -2 25 -4 32 -4z"/>
<path d="M4700 2845 l0 -455 -100 0 -100 0 0 315 0 315 -100 0 -100 0 0 -315
0 -315 -115 0 -115 0 0 -90 0 -90 410 0 410 0 0 545 0 545 -95 0 -95 0 0 -455z"/>
<path d="M5080 2755 l0 -545 100 0 100 0 0 545 0 545 -100 0 -100 0 0 -545z"/>
<path d="M6343 3088 l-173 -172 0 -128 0 -128 153 0 c126 0 159 -4 192 -19 76
-34 115 -103 115 -203 l0 -48 -321 0 -321 0 -29 29 -29 29 0 191 0 191 -100 0
-99 0 -3 -330 -3 -330 -33 -32 c-28 -28 -41 -34 -95 -38 l-62 -5 -3 -40 c-2
-22 -1 -64 3 -94 l7 -54 81 7 c178 15 277 103 303 272 6 41 7 42 38 33 17 -5
222 -9 455 -9 l423 0 -4 178 c-5 192 -16 239 -74 324 -59 85 -178 138 -312
138 l-77 1 138 132 c76 72 138 137 137 143 0 12 -116 134 -128 134 -4 0 -85
-77 -179 -172z"/>
<path d="M5754 3096 c-38 -38 -44 -77 -20 -124 32 -62 127 -74 176 -22 34 36
42 75 25 116 -18 43 -51 64 -103 64 -37 0 -50 -6 -78 -34z"/>
<path d="M7110 2515 c0 -338 -3 -359 -60 -394 -18 -10 -57 -22 -87 -26 l-55
-7 7 -81 c4 -45 10 -86 12 -91 8 -12 128 1 188 21 34 11 66 33 102 68 44 44
55 64 75 129 l23 76 161 0 c165 0 226 10 264 45 15 13 24 11 89 -22 65 -33 81
-38 166 -41 83 -4 99 -2 147 20 104 48 157 115 178 223 22 114 -20 238 -105
313 -59 52 -119 72 -214 72 -89 0 -154 -25 -220 -86 -55 -49 -84 -100 -115
-205 -38 -125 -49 -133 -191 -137 -111 -4 -115 -3 -140 22 l-25 25 0 191 0
190 -100 0 -100 0 0 -305z m958 98 c56 -35 78 -122 46 -184 -36 -71 -158 -77
-235 -12 -29 25 -31 30 -27 75 11 113 126 177 216 121z"/>
<path d="M7053 1593 c-7 -2 -13 -12 -13 -21 0 -9 -7 -26 -15 -36 -26 -35 -18
-44 36 -44 46 -1 50 1 47 21 -2 14 -11 23 -25 25 -24 4 -30 16 -13 27 12 7 14
35 3 34 -5 0 -14 -3 -20 -6z"/>
<path d="M2310 1433 c0 -205 1 -207 109 -199 42 2 81 5 86 6 6 1 24 -4 41 -11
86 -35 163 59 120 148 -45 95 -172 65 -192 -47 -4 -19 -11 -41 -17 -47 -13
-17 -72 -17 -85 0 -7 8 -13 72 -14 158 -3 141 -4 144 -25 147 l-23 3 0 -158z
m310 -74 c23 -42 -3 -89 -50 -89 -33 0 -50 17 -50 50 0 61 73 90 100 39z"/>
<path d="M3210 1431 l0 -161 -24 0 c-55 0 -56 2 -56 141 0 122 -1 129 -20 129
-18 0 -20 -8 -22 -132 l-3 -133 -42 -3 c-44 -3 -49 -7 -35 -29 6 -9 41 -12
128 -10 l119 2 0 175 c0 174 0 175 -22 178 l-23 3 0 -160z"/>
<path d="M3340 1410 l0 -181 23 3 c22 3 22 4 22 178 0 174 0 175 -22 178 l-23
3 0 -181z"/>
<path d="M5045 1578 c-3 -7 -6 -78 -7 -158 l-3 -145 -44 0 -44 0 -12 59 c-17
83 -54 116 -129 116 -47 0 -57 -4 -84 -31 -54 -56 -66 -173 -19 -184 12 -3
283 -4 602 -3 l580 3 0 175 c0 173 0 175 -22 178 -22 3 -23 2 -25 -155 -3
-158 -3 -158 -27 -161 -13 -2 -39 -1 -57 3 l-33 6 -3 152 c-3 149 -3 152 -25
155 -23 3 -23 3 -23 -146 0 -168 -3 -175 -67 -170 l-38 3 -5 65 c-4 58 -8 65
-27 68 -21 3 -22 -1 -25 -65 l-3 -68 -55 0 -55 0 -6 46 c-9 61 -25 84 -74 105
-22 10 -42 19 -44 21 -2 1 6 20 17 42 20 38 20 39 2 56 -27 25 -54 12 -46 -21
5 -17 0 -37 -13 -60 -24 -40 -19 -62 18 -70 51 -11 61 -15 76 -30 20 -21 20
-80 -1 -88 -9 -3 -62 -6 -119 -6 -85 0 -104 3 -109 16 -3 9 -6 81 -6 160 0
138 -1 144 -20 144 -11 0 -23 -6 -25 -12z m-176 -204 c25 -31 27 -76 6 -94
-20 -17 -144 -4 -152 16 -8 21 5 62 27 84 31 31 93 27 119 -6z"/>
<path d="M6490 1410 c0 -180 0 -180 23 -180 l22 0 -2 172 c-1 95 -2 176 -3
181 0 4 -9 7 -20 7 -19 0 -20 -7 -20 -180z"/>
<path d="M6739 1588 c0 -2 -2 -73 -4 -158 -2 -121 0 -160 11 -177 l14 -22 528
2 527 2 3 108 c3 108 3 108 -20 105 -22 -3 -23 -8 -26 -85 -3 -79 -4 -83 -27
-89 -14 -3 -31 -4 -39 -1 -14 6 -26 51 -26 103 0 27 -4 34 -20 34 -18 0 -20
-7 -20 -65 0 -60 -2 -65 -24 -71 -51 -12 -65 2 -68 69 -3 54 -5 62 -23 62 -17
0 -20 -8 -23 -60 -2 -33 -9 -63 -15 -67 -7 -4 -31 -8 -54 -8 l-43 0 0 69 c0
72 -6 86 -34 75 -12 -5 -16 -21 -16 -70 0 -58 -2 -64 -23 -70 -13 -3 -41 -4
-63 -2 l-39 3 -3 60 c-3 80 -7 88 -31 75 -16 -8 -21 -23 -23 -73 -3 -62 -3
-62 -33 -62 -28 0 -30 2 -33 45 -4 71 -10 90 -32 90 -17 0 -19 -8 -22 -67 l-3
-68 -35 0 -35 0 -3 68 c-3 64 -4 67 -27 67 -24 0 -25 -3 -25 -64 0 -70 -6 -76
-75 -76 -52 0 -55 11 -55 172 0 141 -1 148 -20 148 -11 0 -20 -1 -21 -2z"/>
<path d="M8100 1435 l0 -154 -34 -7 c-19 -3 -39 -3 -45 1 -7 4 -11 56 -11 141
0 127 -1 134 -20 134 -19 0 -20 -7 -20 -134 0 -149 1 -146 -72 -146 -32 0 -39
-3 -36 -17 3 -16 23 -18 226 -20 l222 -2 -2 177 c-3 169 -4 177 -23 177 -19 0
-20 -8 -25 -155 l-5 -155 -43 -3 c-70 -5 -72 0 -72 169 0 142 -1 149 -20 149
-19 0 -20 -7 -20 -155z"/>
<path d="M5489 1537 c-37 -29 -26 -66 14 -45 10 5 25 5 37 -2 31 -17 40 18 11
42 -27 21 -40 22 -62 5z"/>
<path d="M7315 1536 c-16 -12 -18 -48 -2 -47 4 1 23 1 42 1 28 0 35 4 35 19 0
26 -52 44 -75 27z"/>
<path d="M6185 1496 c-10 -7 -16 -20 -12 -28 4 -12 21 -15 74 -14 64 1 68 3
71 25 4 23 2 24 -37 17 -23 -3 -50 -2 -60 3 -13 7 -24 6 -36 -3z"/>
<path d="M2084 1485 c-8 -20 4 -35 26 -35 23 0 32 13 24 34 -8 20 -43 21 -50
1z"/>
<path d="M3684 1485 c-8 -20 4 -35 26 -35 25 0 35 17 20 35 -16 19 -39 19 -46
0z"/>
<path d="M2790 1440 c-17 -32 -11 -40 28 -40 71 0 107 -65 61 -111 -18 -18
-30 -20 -87 -17 -61 3 -67 1 -67 -17 0 -18 8 -20 83 -23 76 -3 84 -1 107 22
20 21 25 35 25 79 0 45 -4 59 -26 81 -15 14 -29 26 -33 26 -3 0 -23 4 -44 9
-31 8 -39 6 -47 -9z"/>
<path d="M4013 1421 c-37 -23 -49 -42 -58 -94 -9 -45 -34 -61 -81 -52 l-34 6
0 64 c0 63 -1 65 -25 65 -25 0 -25 -1 -25 -92 -1 -57 -5 -99 -13 -109 -32 -42
-100 -51 -135 -19 -18 17 -22 32 -22 81 0 57 -1 60 -22 57 -20 -3 -23 -10 -26
-60 -4 -71 17 -114 63 -134 76 -31 157 -7 183 55 l17 39 74 4 c41 3 91 1 109
-4 70 -20 123 7 142 70 26 93 -68 172 -147 123z m87 -51 c54 -54 -12 -126 -81
-90 -38 21 -18 85 31 103 25 9 29 8 50 -13z"/>
<path d="M6620 1311 c0 -127 -2 -133 -52 -145 -36 -8 -36 -34 -1 -42 33 -9 73
12 90 46 8 16 13 69 13 143 l0 117 -25 0 -25 0 0 -119z"/>
<path d="M4583 1413 c-9 -3 -13 -33 -13 -99 0 -87 -2 -97 -25 -119 -30 -31
-83 -33 -116 -6 -21 17 -24 27 -22 81 1 57 0 61 -20 58 -20 -3 -22 -9 -22 -75
0 -66 3 -75 28 -100 24 -24 35 -28 86 -28 108 0 144 53 139 204 -3 81 -9 95
-35 84z"/>
<path d="M6377 1413 c-4 -3 -7 -35 -7 -69 l0 -63 -46 -7 c-74 -11 -173 1 -190
22 -14 19 -14 52 0 85 5 12 1 18 -14 22 -26 7 -40 -24 -40 -88 0 -35 5 -48 26
-64 24 -19 40 -21 161 -21 l133 0 10 26 c11 28 13 123 4 148 -6 16 -26 21 -37
9z"/>
<path d="M2190 1311 c0 -96 -1 -100 -26 -120 -36 -28 -85 -27 -112 2 -15 16
-22 38 -24 77 -2 42 -7 56 -20 58 -12 2 -19 -6 -24 -32 -9 -52 3 -103 35 -138
56 -63 173 -43 207 37 9 21 14 69 14 125 0 89 0 90 -25 90 -25 0 -25 0 -25
-99z"/>
<path d="M3110 1170 c-37 -37 -20 -80 31 -80 35 0 53 23 44 57 -11 46 -42 56
-75 23z m48 -18 c15 -10 5 -42 -13 -42 -15 0 -28 27 -19 41 6 11 15 11 32 1z"/>
</g>
</svg>
